/* XPM */
static char *a8d81d2ba0984110ca2a90ee504885cbYqhDYRuB5V8Gwbfi[] = {
/* columns rows colors chars-per-pixel */
"64 64 118 2 ",
"   c #FF426A47",
".  c #FF466D4B",
"X  c #FF496F4E",
"o  c #FF47714D",
"O  c #FF4A714E",
"+  c #FF4F784C",
"@  c #FF537B4E",
"#  c #FF4C7352",
"$  c #4F7855",
"%  c #517655",
"&  c #517A56",
"*  c #587953",
"=  c #527758",
"-  c #547C59",
";  c #5A7D5F",
":  c #5C7E61",
">  c #568150",
",  c #5D8455",
"<  c #56825C",
"1  c #59855E",
"2  c #5D895E",
"3  c #608655",
"4  c #638A55",
"5  c #64875F",
"6  c #638D5C",
"7  c #6B9356",
"8  c #64915D",
"9  c #69925B",
"0  c #71965A",
"q  c #749C5B",
"w  c #799F5D",
"e  c #7CA35C",
"r  c #5C8561",
"t  c #5D8C63",
"y  c #5F9065",
"u  c #618265",
"i  c #618F63",
"p  c #65836B",
"a  c #6A8A6D",
"s  c #649364",
"d  c #699663",
"f  c #679863",
"g  c #6D9963",
"h  c #739E61",
"j  c #72926D",
"k  c #6E8C72",
"l  c #728E76",
"z  c #739374",
"x  c #7D9B76",
"c  c #7C957F",
"v  c #79987F",
"b  c #76A161",
"n  c #7CA560",
"m  c #7FA860",
"M  c #80A75D",
"N  c #85AC5F",
"B  c #89AD5F",
"V  c #88B05F",
"C  c #80A760",
"Z  c #85AC60",
"A  c #7C9681",
"S  c #869D8A",
"D  c #899E8D",
"F  c #88A386",
"G  c #8AA28C",
"H  c #8EA490",
"J  c #92A795",
"K  c #94A997",
"L  c #FF96A999",
"P  c #FF99AC9B",
"I  c #FF9EAFA1",
"U  c #FF9FB1A1",
"Y  c #FFA1B2A3",
"T  c #FFA8B9A7",
"R  c #FFABBAAD",
"E  c #FFAFBDB1",
"W  c #FFB2C1B4",
"Q  c #FFB7C3B9",
"!  c #FFBBC6BC",
"~  c #FFBEC8BF",
"^  c #FFBEC9C0",
"/  c #FFC3CCC5",
"(  c #FFC7CDC8",
")  c #FFCACFCB",
"_  c #FFC8D0CA",
"`  c #FFCAD1CB",
"'  c #FFCDD4CE",
"]  c #FFCFD7D0",
"[  c #FFD1D6D2",
"{  c #FFD3D9D4",
"}  c #FFD4D9D4",
"|  c #FFD5D9D6",
" . c #FFD8DCD9",
".. c #FFD9DDD9",
"X. c #FFDCDFDD",
"o. c #FFDDE1DD",
"O. c #FFDEE1DE",
"+. c #FFE1E4E2",
"@. c #FFE3E4E3",
"#. c #FFE4E4E4",
"$. c #FFE5E6E5",
"%. c #FFE6E7E7",
"&. c #FFE8E7E8",
"*. c #FFEBEAEB",
"=. c None",
"-. c #FFEBECEB",
";. c #FFECECEB",
":. c #FFEBEBEC",
">. c #FFECEBEC",
",. c #FFEDEBED",
"<. c None",
"1. c None",
"2. c #FFF0EEEF",
"3. c #FFF0EEF0",
"4. c #FFF1EEF0",
"5. c #FFF1EEF1",
"6. c #FFF2F0F2",
"7. c #FFF3F1F3",
/* pixels */
"1.1.1.1.1.1.1.1.1.1.1.1.1.1.1.1.1.1.1.1.1.1.1.1.1.1.1.1.1.1.1.1.1.1.1.1.1.1.1.1.1.1.1.1.1.1.1.1.1.1.1.1.1.1.1.1.1.1.1.1.1.1.1.1.",
"=.=.=.=.=.=.=.=.=.=.=.=.=.=.=.=.=.=.=.=.=.=.=.=.=.=.=.=.=.=.=.=.=.=.=.=.=.=.=.=.=.=.=.=.=.=.=.=.=.=.=.=.=.=.=.=.=.=.=.=.=.=.=.=.",
"=.=.1.=.=.=.=.=.1.=.1.=.=.=.1.=.=.1.=.=.=.1.=.1.=.=.=.=.=.1.=.=.=.1.=.1.=.=.=.=.=.=.=.=.1.=.1.=.=.=.1.=.=.=.=.=.1.=.1.=.=.=.1.=.",
"=.1.=.=.=.1.=.1.=.=.=.=.=.1.=.=.=.=.1.=.=.=.=.=.1.=.1.=.=.=.1.=.=.=.=.=.1.=.1.=.=.1.=.1.=.=.=.=.=.1.=.=.=.1.=.1.=.=.=.=.=.1.=.=.",
"1.=.=.=.1.=.=.=.=.=.=.=.1.=.1.=.=.1.=.1.=.=.=.=.=.=.=.1.=.=.=.1.=.=.=.=.=.1.=.=.=.=.1.=.=.=.=.=.1.=.=.=.1.=.=.=.=.=.=.=.1.=.1.=.",
"=.=.=.1.=.=.=.1.=.1.=.1.=.=.=.=.=.=.=.=.1.=.1.=.1.=.=.=.1.=.=.=.1.=.1.=.=.=.1.=.=.1.=.=.=.1.=.1.=.=.=.1.=.=.=.1.=.1.=.1.=.=.=.=.",
"1.=.1.=.1.=.1.=.1.=.=.=.=.=.1.=.=.1.=.=.=.=.=.1.=.1.=.1.=.1.=.1.=.=.=.1.=.=.=.=.=.=.=.=.1.=.=.=.1.=.1.=.1.=.1.=.1.=.=.=.=.=.1.=.",
"=.=.=.=.=.=.=.=.=.=.=.1.=.1.=.=.=.=.1.=.1.=.=.=.=.=.=.=.=.=.=.=.1.=.=.=.1.=.1.=.=.1.=.1.=.=.=.1.=.=.=.=.=.=.=.=.=.=.=.1.=.1.=.=.",
"=.=.=.=.=.=.=.=.1.=.=.=.1.=.1.=.1.=.=.=.=.=.=.1.-.-.:.:.:.:.,.=.=.=.-.1.1.=.=.=.=.=.=.=.=.=.1.=.=.=.=.=.=.=.=.=.1.=.=.=.1.=.1.=.",
"=.1.=.1.=.1.=.1.=.=.=.1.=.=.=.=.=.=.=.1.=.1.=.=.:.1.-.=.:.:.:.,.=.=.=.=.-.;.;.1.=.1.=.1.=.1.=.=.=.1.=.1.=.1.=.1.=.=.=.1.=.=.=.=.",
"1.=.=.=.1.=.=.=.1.=.1.=.=.=.1.=.1.=.1.=.=.=.=.1.1.-.:.:.:.:.,.,.=.=.=.-.=.=.=.=.=.=.=.=.=.=.=.=.1.=.=.=.1.=.=.=.1.=.1.=.=.=.1.=.",
"=.=.=.1.=.=.=.1.=.=.=.=.=.1.=.=.=.=.=.=.=.1.=.=.=.=.=.=.:.:.,.,.=.=.=.=.=.=.=.=.=.=.=.1.=.1.=.1.=.=.=.1.=.=.=.1.=.=.=.=.=.1.=.=.",
"1.=.1.=.=.=.1.=.=.=.=.=.1.=.1.=.1.=.=.=.;.;.;.2.[ R I Y Y Y I I Y U Y I Y / :.,.;.1.=.=.1.=.=.=.1.=.1.=.=.=.1.=.=.=.=.=.1.=.1.=.",
"=.=.=.=.=.1.=.=.=.1.=.1.=.=.=.=.=.=.>.1.=.=.;.6.Q r . # # # # # # # # X # J $.,.=.=.=.1.=.=.=.1.=.=.=.=.=.1.=.=.=.1.=.1.=.=.=.=.",
"=.=.1.=.=.=.=.=.1.=.=.=.=.=.1.=.1.=.=.=.1.;.[ R D d 3 , 3 3 3 3 , , 3 3 4 x Y ^ $.=.=.=.1.=.1.=.=.=.1.=.=.=.=.=.1.=.=.=.=.=.1.=.",
"=.1.=.=.=.1.=.1.=.=.=.1.=.1.=.=.>.,.=.=.=.1.R : * w N M M Z C Z M M C Z M 4 = S @.1.=.=.=.=.=.=.=.1.=.=.=.1.=.1.=.=.=.1.=.1.=.=.",
"1.=.=.=.1.=.1.=.=.=.=.=.=.1.=.1.=.=.1.=.` E F 5 7 M N Z Z Z Z Z Z Z N V N q 4 z Y ! @.1.-.:.-.1.1.=.1.=.=.=.=.=.=.1.=.=.=.=.=.1.",
"=.=.=.1.=.=.=.=.1.=.1.=.=.=.=.=.=.=.2.>.U ; , e B Z Z Z Z V V Z Z V Z N N V e 9 % c  .1.-.-.-.:.=.=.=.=.1.=.1.=.=.=.1.=.1.=.=.=.",
"1.=.1.=.=.=.1.=.=.=.=.1.=.=.=.=.=.=.( R C 6 7 M V Z Z Z V Z V V V Z V N N N N 0 * a U ! o.1.:.-.=.=.1.=.=.=.=.1.=.=.=.=.=.1.=.1.",
"=.=.=.=.=.1.=.=.1.=.=.=.1.=.1.=.1.$.L % a e N N Z Z V V Z V Z Z Z V N V N N C w s 1 $ l ' 4.:.:.=.1.=.=.1.=.=.=.1.=.1.=.=.=.=.=.",
"=.=.=.=.1.=.1.=.=.=.=.=.=.2.=.=.4.%.K # , C V Z Z V Z Z Z V Z Z V B N V Z m b d 1 & . k ] 4.:.:.1.=.=.=.=.1.=.=.=.1.=.1.=.=.=.1.",
"=.1.=.1.=.=.=.=.1.>.1.=.;.,.&.=.4.$.J # 4 e Z V Z V V Z Z Z Z Z Z Z N N m b s 1 $ O o l ] 6.:.:.=.=.1.:.=.=.1.=.=.=.=.=.1.=.=.=.",
"1.=.=.=.=.=.1.=.=.=.=.1.=.=.1.$.` R v - 9 M V Z N N Z Z Z n h b b h b b h g i < # o o u I ^ X.4.1.=.=.=.=.=.=.=.=.1.=.=.=.1.=.1.",
"=.=.=.1.=.1.=.=.1.>.=.=.=.=.1.o.H = < t h M N N B Z Z Z n g s s s s s s s s t < $ O # # # l / 4.=.=.=.=.1.=.1.=.=.=.1.=.=.=.=.=.",
"1.=.1.=.1.=.=.=.=.=.=.=.1.@.) T x , 2 s d b b b b b b b h s i y t r 1 < < 1 < - # $ $ $ o r K ^  .,.:.=.=.1.=.1.=.1.=.=.=.=.=.1.",
"=.=.=.=.=.=.=.1.=.1.=.=.6.| S & 0 M g s s s s s s s s s s i y y t < # $ $ # $ # # & t 1 # o # a Q 1.1.=.=.=.=.:.=.=.1.=.1.=.=.=.",
"=.=.1.=.1.=.1.=.1.=.=.1.6.| v . 7 N e g s y t y y t y y y y y y t < - & & - & - & < t t $ o   u Q 2.,.=.=.=.=.:.=.=.=.=.=.1.=.1.",
"=.1.=.=.=.=.=.=.=.=.=.=.6.{ v o 7 N Z C h s s t y s y y y t s y y t t t y 2 t y t t t r $ # . r Q 6.=.=.=.1.1.,.1.=.1.=.=.=.=.=.",
"1.=.=.=.1.=.1.=.=.=.=.1.4.| A o 6 e C N b h g g f g g g g g g g g g g g g g g f s t y r % # . ; J ^ ..1.,.=.=.&.=.1.=.1.=.=.=.1.",
"=.=.=.1.=.=.=.=.1.=.=.=.4.| A X 1 d b N N C N M C C C Z C C Z M e N m e e Z n b s y t r = O # # # p E 1.,.=.=.1.=.=.=.=.1.=.=.=.",
"1.=.1.=.1.=.1.=.=.=.1.@.] R z $ 1 s h N N N N N Z Z Z Z V N N N V V N N Z m b g s t r - # # # O . = F ~  .&.:.=.=.1.=.=.=.1.=.1.",
"=.=.=.=.=.=.=.=.=.=.4.] A = r t t s h C N N N V Z V V Z V Z V N V V Z N Z b f s t r & # O # # # O # # r T =.1.=.=.=.1.=.=.=.=.=.",
"1.=.1.=.1.>.=.=.=.@.` T j > 8 g s y g b n b m Z Z V V V V Z Z Z Z n m b b g s t 1 < # # O # # O # # . # Y ,.1.=.=.1.=.1.=.1.=.=.",
"=.=.=.=.=.>.>.1.=.( l < e e M e g s s s s s h C Z Z Z Z Z Z Z Z N g s s s s y < $ # # O # O O # # O . # U $.1.=.=.=.=.=.=.=.1.=.",
"=.=.1.=.=.>.=.>.4./ u + w V B N b g s y y y d b b n n n n n b n b 9 1 1 1 1 1 < # $ $ = $ - $ $ # # . % Y =.4.:.=.1.=.1.=.=.=.=.",
"=.1.>.>.;.;.=.1.1./ u + q N N N C m g s y y i s f s s s s f s s s < $ # $ $ $ # # $ r t r r t r = # . # Y :.4.:.=.=.=.:.1.=.1.=.",
"=.=.=.=.>.>.=.>.1./ : % w N N N V Z b g s y y y y y y y y y p y t < $ = & & & $ = - t y y y y t < = # $ G ^ ..%.=.=.=.1.=.1.=.=.",
"=.1.=.1.,.4.=.1.2./ p + w V N N Z Z Z n h s y y y y y y y y y y y t t t r r t t t i y t y y y t t r $ # = r U +.1.=.=.=.=.=.1.=.",
"1.=.=.=.=.&.=.2.2.( : % 0 m N B Z Z Z Z b g d d s y y y y i y y y t y t y y y s d d g g d s s y y t < # . X K +.4.-.=.=.=.=.=.=.",
"=.=.=.1.=.,.&.=.2.( p % 5 g b Z V Z Z Z Z C C C h s t y y i y y y y y t y t s g n m m C C b s y t r & # . X J @.6.-.=.=.1.=.1.=.",
"=.=.1.=.=.=.=.1.6./ p O 1 f b Z V Z Z V Z N N N b h s s t y y y y s d d f g g b C V N N N C b g s t * # X X J @.6.=.=.=.:.:.:.1.",
"=.1.=.=.=.=.=.>.6.( p O 1 s b Z Z Z Z Z B V V N Z m b d i y y y s h n m m n n m Z Z N V N Z m b g t - O X O L #.6.=.=.=.1.=.=.=.",
"=.=.=.=.=.=.=.+.' R a * 1 t q C Z B B V V V B N V Z m g d d d g g b Z Z N V Z Z N V V N Z N e w s 1 = O X O D / ..$.,.1.=.1.=.1.",
"=.1.=.1.=.=.&./ k 5 e q * $ 2 g b Z N N Z N N N Z Z V m n m m n C N Z Z N V N V N N N Z Z m h i < # % # O O = r P X.4.:.=.=.=.=.",
"1.;.1.>.>.1.>.! - @ e M 3 & 1 t q n m n b b e m b m m V N V N N V N N N V B Z m m n b e C b s 1 - & $ & # # O   D ..4.=.=.-.-.1.",
"=.=.=.=.=.2.=.! ; @ e V M q , $ 1 f s f g f s f g s g e N N N N V N N N N V V b f f f g f s - & < 2 r r - # O . D ..6.1.=.=.=.=.",
"=.=.1.=.;.;.2.! : # w C Z e 4 * r y t r 1 r t 1 1 1 i e e m m m e m b n n e e q t r t 1 1 1 = = < y y y - # X . D X.4.:.=.1.=.1.",
"=.1.;.>.;.2.>.! : + i h n N e w g y < & $ $ & & & = & s s d s d g s g f f 2 * * & # $ $ $ & 1 r y y y t = # . . S ..4.=.=.=.=.=.",
"=.=.=.=.=.1.>.! ; X r f b M Z Z h d 1 & = $ $ & $ $ & 1 1 t 1 1 t 1 1 2 < - # # $ & & & $ < r y y t t 1 & O ; u P X.2.>.>.=.>.1.",
"=.1.=.1.=.1.>.! ; O 5 i s g b N Z n 9 t r 1 r r 1 t < - $ # & $ $ $ = & = # # & 1 1 1 t r r t y y t < $ O O G / o.&.=.=.1.=.=.=.",
"1.=.=.=.=.=.=./ z 1 1 1 t s b n e C g s s d f d f f 6 < % * * * * * @ * * * & < s f s s y y y t t 1 & # X X L #.4.:.,.1.=.1.>.1.",
"=.=.=.1.=.=.=.@.[ R u % r s s d d f s y g b n n n b e e e e e e e e b e e e e e n e n b f y y t < $ # # X X J @.4.,.=.=.=.=.=.=.",
"=.=.1.=.=.=.=.=.:.] A : r 2 s t t r t t g e C n e C m m m m m m e e C C e e C C n n M e 6 r t < & # X # = u U #.1.=.=.1.=.=.=.1.",
"=.1.=.=.=.=.=.=.1.@.{ E k # r t < & $ & 2 f g d d d d f g s f g d d g g f g g f d 6 < * & $ $ $ # O . $ G ( X.=.=.=.=.=.1.=.=.=.",
"=.=.=.=.1.=.1.=.=.:.6.] A r r 1 = # O # & 1 t r t r r t r t t r t t r t t r t t r < # O # # O # O # = p E =.1.=.=.>.=.=.=.1.=.1.",
"=.1.=.1.=.=.=.=.=.=.1.%. .W z o O O O O O = & & $ & & & $ & $ $ $ $ $ & $ $ $ $ & # # O X O X O   = J ` o.1.:.,.=.1.1.=.=.=.=.=.",
"=.=.=.=.=.=.=.=.,.:.=.:.4...H ; : r : : : r - # O X # # # # O # # O # X # # # X O % 1 : : : : : & a W 1.>.=.=.=.=.=.=.1.=.1.=.=.",
"=.1.=.1.=.1.=.1.:.:.=.:.1.$.[ / ( ( ( / ) ) J - . X X X X X X X X o # X . X X . X k Q ) ( ( / ( ( ) o.>.1.=.=.=.1.=.=.=.=.=.1.=.",
"1.=.=.=.1.=.=.=.:.:.:.:.=.=.,.:.,.=.,.=.1.2.E a - : ; ; ; ; ; ; : : ; ; ; ; : ; ; S X.2.2.1.>.>.1.=.>.=.=.=.=.1.=.1.=.1.=.=.=.=.",
"=.=.=.1.=.=.=.1.:.:.1.:.=.=.1.,.=.1.=.1.=.,.X.( / / / / / / / / / / / / / / / / / ' $.1.;.;.>.1.;.=.=.=.=.=.=.=.=.=.=.=.1.=.1.=.",
"1.=.1.=.=.=.1.=.=.=.=.=.=.=.=.=.=.=.-.-.=.=.=.1.,.=.,.=.1.:.,.=.:.1.=.1.=.1.1.=.=.1.=.=.=.=.-.=.-.=.-.;.=.1.=.1.=.=.=.=.=.1.=.=.",
"=.=.=.=.=.1.=.=.=.1.=.1.=.1.:.:.=.1.-.-.:.=.=.-.=.,.,.1.-.-.=.1.=.:.=.-.=.:.=.=.=.=.=.=.=.1.-.=.1.=.=.1.=.=.=.=.1.=.1.=.=.=.1.=.",
"=.=.1.=.=.=.=.=.1.=.=.=.=.=.1.=.=.=.=.=.1.=.=.-.-.=.=.=.=.=.-.=.=.-.=.=.-.-.:.=.-.1.1.=.-.-.1.=.1.=.=.=.=.1.=.=.=.=.=.1.=.=.=.=.",
"=.1.=.=.=.1.=.1.=.=.=.1.=.1.-.=.=.1.=.1.=.=.=.1.=.=.=.1.=.1.-.=.=.1.=.1.-.=.=.1.=.=.=.=.=.1.=.=.=.=.=.1.=.=.1.=.1.=.=.=.1.=.1.=."
};
