/* XPM */
static char *_8df40962c484d80aca36908a91f7cd4lbf845bMnaoZOYO9[] = {
/* columns rows colors chars-per-pixel */
"64 64 140 2 ",
"   c #67946C",
".  c #5F8F65",
"X  c #609066",
"o  c #66946C",
"O  c #5E8D64",
"+  c #5E8E64",
"@  c #608F66",
"#  c #5A8760",
"$  c #4E7553",
"%  c #537D59",
"&  c #59855E",
"*  c #4D7352",
"=  c #527B57",
"-  c #5A875F",
";  c #537D58",
":  c #5D8C63",
">  c #58855E",
",  c #66956C",
"<  c #59865F",
"1  c #4C7251",
"2  c #527C58",
"3  c #5F8E65",
"4  c #4C7351",
"5  c #5C8B62",
"6  c #58845E",
"7  c #4F7654",
"8  c #537C58",
"9  c #5C8A62",
"0  c #5F8F66",
"q  c #609065",
"w  c #619065",
"e  c #6D9A63",
"r  c #7FA761",
"t  c #709D63",
"y  c #729E63",
"u  c #89AF5F",
"i  c #76A162",
"p  c #729D63",
"a  c #87AE5F",
"s  c #82AA60",
"d  c #7DA661",
"f  c #719D63",
"g  c #88AF5F",
"h  c #77A262",
"j  c #75A062",
"k  c #7CA561",
"l  c #679564",
"z  c #87AE60",
"x  c #77A162",
"c  c #699764",
"v  c #7CA661",
"b  c #739E63",
"n  c #7EA761",
"m  c #6A9764",
"M  c #86AD60",
"N  c #608F65",
"B  c #7BA461",
"V  c #7DA761",
"C  c #659465",
"Z  c #6B9864",
"A  c #88AF60",
"S  c #71995C",
"D  c #507957",
"F  c #618A5B",
"G  c #7BA561",
"H  c #7FA861",
"J  c #7AA461",
"K  c #5E8E66",
"L  c #709C63",
"P  c #89AF60",
"I  c #6F9559",
"U  c #496F50",
"Y  c #628856",
"T  c #679664",
"R  c #5F8B5F",
"E  c #5F8555",
"W  c #678E58",
"Q  c #73995A",
"!  c #7AA15C",
"~  c #79A05C",
"^  c #5F895B",
"/  c #6C9964",
"(  c #56825C",
")  c #496E4F",
"_  c #638A56",
"`  c #89B060",
"'  c #72995A",
"]  c #4A6F50",
"[  c #517A57",
"{  c #6B9964",
"}  c #5C865B",
"|  c #618756",
" . c #5E8659",
".. c #5B8860",
"X. c #609166",
"o. c #57835D",
"O. c #4A7050",
"+. c #527B58",
"@. c #6F9B63",
"#. c #639265",
"$. c #58845D",
"%. c #5A8860",
"&. c #88AE5F",
"*. c #659365",
"=. c #7AA469",
"-. c #729E62",
";. c #629165",
":. c #8DB266",
">. c #84AC60",
",. c #649365",
"<. c #5E8F66",
"1. c #79A369",
"2. c #739F62",
"3. c #629265",
"4. c #65936C",
"5. c #83AB60",
"6. c #85AD60",
"7. c #78A26A",
"8. c #749F62",
"9. c #7CA569",
"0. c #5B8961",
"q. c #4A704F",
"w. c #547F5A",
"e. c #57825C",
"r. c #4B7050",
"t. c #56815B",
"y. c #517A56",
"u. c #57835C",
"i. c #507956",
"p. c #689664",
"a. c #669564",
"s. c #67956C",
"d. c #78A262",
"f. c #619165",
"g. c #80A961",
"h. c #669465",
"j. c #76A062",
"k. c #85AC60",
"l. c #74A062",
"z. c white",
/* pixels */
"  . X X X X X X X X X X X X X X X X X X X X X X X X X X X X X X X X X X X X X X X X X . X X X X X X X X X X X X X X X X X X X X ",
"o . X X X X X X X X X X X X X X X X X X X X X X X X X X X X X X X X X X X X X X X X X X . O + . X X X X X X X X X X X X X X X X ",
"o . X X X X X X X X X X X X X X X X X X X X X X X X X X X X X X X X X X X X X X X @ X X # $ % . X X X X X X X X X X X X X X X X ",
"  . X X X X X X X X X X X X X X X X X X X X X X X X X X X X X X X X X X X X X X X X . + & * = O + . X X X X X X X X X X X X X X ",
"o . X X X X X X X X X X X X X X X X X X X X X X X X X X X X X X X X X X X X X X X X - $ ; : > $ ; . X X X X X X X X X X X X X X ",
", . X X X X X X X X X X X X X X X X X X X X X X X X X X X X X X X X X X X X X X X X < 1 2 3 < 4 = . X X X X X X X X X X X X X X ",
"  . X X X X X X X X X X X X X X X X X X X X X X X X X X X X X X X X X X X X X X X X + 5 6 7 8 9 : . X X X X X X X X X X X X X X ",
"o . X X X X X X X X X X X X X X X X X X X X X X X X X X X X X X X X X X X X X X X . X X - 1 = X X X X X X X X X X X X X X X X X ",
"  . X X X X X X X X X X X X X X X X X X X X X X X X X X X X X X X X X X X X X X X X X X + 9 : . X X X X X X X X X X X X X X X X ",
"o . X X X X X X X X X X X X X X X X X X X X X X X X X X X X X X X X X X X X X X X X X . X X X X X X X X X X X X X X X X X X X X ",
"  . X X X X X X X X X X X X X X X X X X X X X X X X X X X X X X X X 0 0 0 X X X X X X X X X X X X X X X X X X X X X X X X X X X ",
"  . X X X X X X X X X X X X X X X X X X X X X X X X X X X X X X X 0 q w q 0 X X X X X X X X X X X X X X X X X X X X X X X X X X ",
"o . X X X X X X X X X X X X X X X X X X X X X X X X X X X X X X X 0 e r t 0 0 X X X X X X X X X X X X X X X X X X X X X X X X X ",
"  . X X X X X X X X X X X X X X X X X X X X X X X X X X X X X X X 0 y u i q q 0 X X X X X X X X X X X X X X X X X X X X X X X X ",
"o . X X X X X X X X X X X X X X X X X X X X X X X X X X X X X X X 0 p a s d f 0 X X X X X X X X X X X X X X X X X X X X X X X X ",
"o . X X X X X X X X X X q q q 0 X X X X X X X X X X X X X X X X X 0 p a a g h 0 X 0 q q q X X X X X X X X X X X X X X X X X X X ",
"  . X X X X X X X X 0 q j k l 0 X X X X X X X X X X X X X X X X X 0 p a z a x 0 X 0 c v b 0 X X X X X X X X X X X X X X X X X X ",
"o . X X X X X X X X 0 w n a m 0 X X X X X X X X X X X X X X X X X 0 p a M a x 0 N 0 e g B 0 X X X X X X X X X X X X X X X X X X ",
"  . X X X X X X X X 0 w V M c 0 X X X X X X X X X X X X X X X X X 0 C Z h A S D F G H a J 0 X X X X X X X X X X X X X X X X X X ",
"  . X X X X X X X X 0 w V M c 0 0 0 0 X X X X X X X X X X X X X X q 0 K L P I U Y A a a J 0 X X X X X X X X X X X X X X X X X X ",
"o . X X X X X X X X 0 w V M c 0 y J T 0 X X X X X X X X X X X X X X X X R E W Q ! z ~ E ^ X X X X X X X X X X X X X X X X X X X ",
", . X X X X X X X X 0 w V M c 0 k g / 0 X X X X X X X X X X X X X X X X ( ) _ ` A A ' ] [ X X X X X X X X X X X X X X X X X X X ",
"  . X X X X X X X X 0 w V M c 0 k a { 0 X X X X X X X X X X X X X X X X 5 6 } | | |  .6 ..X X X X X X X X X X X X X X X X X X X ",
"o . X X X X X X X X 0 w n a m 0 k a { 0 X X X X X X X X X X X X X X X . X X.o.O.O.] +.X X X X X X X X X X X X X X X X X X X X X ",
"  . X X X X X X X X 0 q Z @.#.q k a { 0 X X X X X X X X X X X X X X X X X X 5 $.$.$.%.X X X X X X X X X X X X X X X X X X X X X ",
"o . X X X X X X X X X 0 0 0 0 q k &./ 0 X X X X X X X X X X X X X X X X X . X X X X X . X X X X X X X X X X X X X X X X X X X X ",
"  . X X X X X X X X X X X X X q { L *.0 X X X X X X X X X X X X X X X X X X X X X X X X X X X X X X X X X X X X X X X X X X X X ",
"  . X X X X X X X X X X X X X 0 0 0 0 q X X X X X X X X X X X X X X X X X X X X X X X X X X X X X X X X X X X X X X X X X X X X ",
"o . X X X X X X X X X X X X X X X X X X X X X X X X X X X X X X X X X X X X X X X X X X X X X X X X X X X X X X X X X X X X X X ",
"o . 0 X X X X X X X X X X X X X X X X X X X X X X X X X X X X X X X X X X X X X X X X X X X X X X X X X X X X X X X X X X X X X ",
"=.-.;.0 X X X X X X X X X X X X X X X X X X X X X X X X X X X X X X X X X X X X X X X X X X X X X X X X X X X X X X X X X X X X ",
":.>.,.<.0 X X X X X X X X X X X X X X X X X X X X X X X X X X X X X X X X X X X X X X X X X X X X X X X X X X X X X X X X X 0 0 ",
"1.2.b f 3.0 X X X X X X X X X X X X X X X X X X X X X X X X X X X X X X X X X X X X X X X X X X X X X X X X X X X X X X X 0 ;.f ",
"4.;.5.6.C 0 X X X X X X X X X X X X X X X X X X X X X X X X X X X X X X X X X X X X X X X X X X X X X X X X X X X X X X X 0 *.5.",
"7.p 8.b #.0 X X X X X X X X X X X X X X X X X X X X X X X X X X X X X X X X X X X X X X X X X X X X X X X X X X X X X X X 0 ;.y ",
":.>.,.0 0 X X X X X X X X X X X X X X X X X X X X X X X X X X X X X X X X X X X X X X X X X X X X X X X X X X X X X X X X X 0 0 ",
"9.2.3.0 X X X X X X X X X X X X X X X X X X X X X X X X X X X X X X X X X X X X X X X X X X X X X X X X X X X X X X X X X X X X ",
"o . 0 X X X X X X X X X X X X X X X X X X X X X X X X X X X X X X X X X X X X X X X X X X X X X X X X X X X X X X X X X X X X X ",
"  . X X X X X X X X X X X X X X X X X X X X X X X X X X X X X X X X X X X X X X X X X X X X X X X X X X X X X X X X X X X X X X ",
"o . X X X X X X X X X X X X X X X X X X X X X X X X X X X X X X X X X X X X X X X X X X X X X X X X X X X X X X X X X X X X X X ",
"o . X X X X X X X X X X X X X X X X X X X X X X X X X X X X X X X X X X X X X X X X X X X X X X X X X X X X X X X X X X X X X X ",
"  . X X X X X X X X X X X X X X X X X X X X X . X X X X X X X X X X X X X X X X X X X X X X X X X X X X X X X X X X X X X X X X ",
"  . X X X X X X X X X X X X X X X X X X 0.> : X X X X X X X X X X X X X X X X X X X X X X X X X X X X X X X X X X X X X X X X X ",
"o . X X X X X X X X X X X X X X X X X X = q.> X.X . X X X X X X X X X X X X X X X X X X X X X X X X X X X X X X X X X X X X X X ",
"o . X X X X X X X X X X X X X X X . 0.< w.= e.< : X X X X X X X X X X X X X X X X X X X X X X X X X X X X X X X X X X X X X X X ",
"o . X X X X X X X X X X X X X X X . [ r.< X.8 q.$.X X X X X X X X X X X X X X X X X X X X X X X X X X X X X X X X X X X X X X X ",
"  . X X X X X X X X X X X X X X X . t.y.u.# w.y.# X X X X X X X X X X X X X X X X X X X X X X X X X X X X X X X X X X X X X X X ",
"o . X X X X X X X X X X X X X X X X . . = r.6 X . X X X X X X X X X X X X X X X X X X X X X X X X X 0 0 0 0 X X X X X X X X X X ",
"o . X X X X X X X X X X X X X X X X X X t.i.%.X X X X X X X X X X X X X X X X X X X X X X X X X X 0 ;.m p.q 0 X X X X X X X X X ",
"  . X X X X X X X X X X X X X X X X X X . . . X X X X X X X X X X X X X X X X X X X X X X X 0 0 0 0 c M n w 0 X X X X X X X X X ",
"  . X X X X X X X X X X X X X X X X X X X X X X X X X X X X X X X X X X X X X X X X X X X 0 3.c a.0 c M n w 0 X X X X X X X X X ",
"o . X X X X X X X X X X X X X X X X X X X X X X X X X X X X X X X X X X X X X X X X X X X 0 Z M G 0 c M n w 0 X X X X X X X X X ",
"s.. X X X X X X X X X X X X X X X X X X X X X X X X X X X X X X X X X X X X X X X X X X X 0 Z a k 0 c M n w 0 X X X X X X X X X ",
", . X X X X X X X X X X X X X X X X X X X X X X X X X X X X X X X X X X X X X X X X X X X 0 Z a k 0 c a n w 0 X X X X X X X X X ",
"  . X X X X X X X X X X X X X X X X X X X X X X X X X X X X X X X X X X X X X X X X X X X 0 Z a k 0 l r d.q 0 X X X X X X X X X ",
"o . X X X X X X X X X X X X X X X X X X X X X X X X X X X X X X X X X X X X X X X X X X X 0 Z a v q q f.w q X X X X X X X X X X ",
"o . X X X X X X X X X X X X X X X X X X X X X X X X X X X X X X X X X X X X X X X X X X X 0 c g.h q 0 0 0 X X X X X X X X X X X ",
"  . X X X X X X X X X X X X X X X X X X X X X X X X 0 0 0 X X X X X X X X X X X X X X X X 0 q ;.f.q X X X X X X X X X X X X X X ",
"  . X X X X X X X X X X X X X X X X X X X X X X X 0 #.h.3.0 X X X X X X X X X X X X X X X X 0 0 0 X X X X X X X X X X X X X X X ",
"o . X X X X X X X X X X X X X X X X X X X X X X 0 0 j M L <.0 X X X X X X X X X X X X X X X X X X X X X X X X X X X X X X X X X ",
"  . X X X X X X X X X X X X X X X X X X X X X 0 #.*.j s p ,.;.0 X X X X X X X X X X X X X X X X X X X X X X X X X X X X X X X X ",
"o . X X X X X X X X X X X X X X X X X X X X X 0 j.k.L f.j k.f 0 X X X X X X X X X X X X X X X X X X X X X X X X X X X X X X X X ",
"  . X X X X X X X X X X X X X X X X X X X X X 0 l.5.f #.j 5.L 0 X X X X X X X X X X X X X X X X X X X X X X X X X X X X X X X X ",
"o . X X X X X X X X X X X X X X X X X X X X X 0 3.,.j 5.f #.;.0 X X X X X X X X X X X X X X X X X X X X X X X X X X X X X X X X "
};
