/* XPM */
static char *_df1b1b455e6468dfc0dcb0acccb9450zsQH7JBAgnRol69F[] = {
/* columns rows colors chars-per-pixel */
"64 64 152 2 ",
"   c #160A06",
".  c #1A0E09",
"X  c #1D110D",
"o  c #1F1410",
"O  c #20130F",
"+  c #221511",
"@  c #241812",
"#  c #241B1A",
"$  c #2D2018",
"%  c #32241B",
"&  c #2D2322",
"*  c #312723",
"=  c #352A26",
"-  c #3D2B21",
";  c #372F2D",
":  c #382F2B",
">  c #39302D",
",  c #24293B",
"<  c #3E3636",
"1  c #422F22",
"2  c #463224",
"3  c #4B3626",
"4  c #44352D",
"5  c #4C3728",
"6  c #4D3829",
"7  c #533D2C",
"8  c #443A37",
"9  c #4E3D33",
"0  c #453D3C",
"q  c #503F36",
"w  c #58412F",
"e  c #504037",
"r  c #5D4531",
"t  c #52423A",
"y  c #5A493E",
"u  c #674D36",
"i  c #684E37",
"p  c #614C3D",
"a  c #684E38",
"s  c #6F543C",
"d  c #70553C",
"f  c #292F43",
"g  c #2C3245",
"h  c #2E3348",
"j  c #3B3943",
"k  c #31374C",
"l  c #33394E",
"z  c #3B3D4C",
"x  c #353C51",
"c  c #383F55",
"v  c #413B41",
"b  c #3C4256",
"n  c #474141",
"m  c #4F4A4A",
"M  c #534643",
"N  c #534A47",
"B  c #554B4B",
"V  c #454552",
"C  c #41465B",
"Z  c #474858",
"A  c #494B58",
"S  c #544F51",
"D  c #565253",
"F  c #585456",
"G  c #56525D",
"H  c #5B585A",
"J  c #635143",
"K  c #6E5744",
"L  c #755E49",
"P  c #655C57",
"I  c #675F5C",
"U  c #796350",
"Y  c #434B64",
"T  c #454E68",
"R  c #48506A",
"E  c #515467",
"W  c #5A5764",
"Q  c #5C5863",
"!  c #535568",
"~  c #5E5D6C",
"^  c #535A71",
"/  c #585C71",
"(  c #605F6E",
")  c #59617D",
"_  c #646164",
"`  c #6C6462",
"'  c #65636B",
"]  c #766F6D",
"[  c #76706D",
"{  c #606172",
"}  c #6E6D75",
"|  c #777173",
" . c #787270",
".. c #77777B",
"X. c #77787E",
"o. c #797A7F",
"O. c #86807E",
"+. c #5E6782",
"@. c #5F6987",
"#. c #636A84",
"$. c #646D8A",
"%. c #6E7282",
"&. c #67708E",
"*. c #69718C",
"=. c #707585",
"-. c #7C7D82",
";. c #73798A",
":. c #667190",
">. c #6A7595",
",. c #6E7997",
"<. c #6B7798",
"1. c #6E7A99",
"2. c #808186",
"3. c #8B8380",
"4. c #84858A",
"5. c #8C8A8B",
"6. c #968D87",
"7. c #908B8B",
"8. c #8B8C90",
"9. c #878B9B",
"0. c #919296",
"q. c #9C9693",
"w. c #949599",
"e. c #A39E9D",
"r. c #8C92A3",
"t. c #8E97AC",
"y. c #8F98AE",
"u. c #9499A7",
"i. c #9299AA",
"p. c #959DB1",
"a. c #9CA4B5",
"s. c #A3A4A7",
"d. c #A6A7AA",
"f. c #ABAAAC",
"g. c #A3A7B1",
"h. c #ADAFB2",
"j. c #A8AFBD",
"k. c #AEB0B4",
"l. c #ACB1BA",
"z. c #B0B0B3",
"x. c #B4B6BA",
"c. c #B7B8BA",
"v. c #BDBABA",
"b. c #B8BEC7",
"n. c #B9BFC9",
"m. c #BAC0C9",
"M. c #C3C3C5",
"N. c #C9CACB",
"B. c #D3D3D4",
"V. c #DBDBDC",
"C. c #E4E4E4",
"Z. c #ECECEC",
/* pixels */
"Z.Z.Z.Z.Z.Z.Z.Z.Z.Z.Z.Z.Z.Z.Z.Z.Z.Z.Z.Z.Z.Z.Z.Z.Z.Z.Z.Z.Z.Z.Z.Z.Z.Z.Z.Z.Z.Z.Z.Z.Z.Z.Z.Z.Z.Z.Z.Z.Z.Z.Z.Z.Z.Z.Z.Z.Z.Z.Z.Z.Z.Z.Z.Z.",
"Z.Z.Z.Z.Z.Z.Z.Z.Z.C.O.` ` ` ` ` ` ` ` ` ` ` ` ` ` ` ` ` ` ` ` ` ` ` ` ` ` ` ` ` ` ` ` ` ` ` ` ` ` ` ` ` ` ` ` 7.C.Z.Z.Z.Z.Z.Z.Z.",
"Z.Z.Z.Z.Z.Z.Z.Z.Z.C.8   . . . . . . . . X . . . . . X X .   . . O   . . . . . . . . . . . . . . . . . .   .   B Z.Z.Z.Z.Z.Z.Z.Z.",
"Z.Z.Z.Z.Z.Z.Z.Z.Z.V.8 . X X + X X X X X O X X X X X X X X X O O O O O O X X O O X X O X O O O O X X O O O O X B C.Z.Z.Z.Z.Z.Z.Z.",
"Z.Z.Z.Z.Z.Z.Z.Z.Z.C.0 . X o . X X X X X . X X X X X . . X O . O X X X O X O O X . X X X X X O # X X O O O X . B Z.Z.Z.Z.Z.Z.Z.Z.",
"Z.Z.Z.Z.Z.Z.e.|  . .4 % % - V Z Z Z Z Z Z 0 % % % % - % - % - % % - % % % % - % - * % - v Z Z v T v Z v - % % 9 |  .| f.Z.Z.Z.Z.",
"Z.Z.Z.Z.Z.Z.P   O . 1 5 3 t &.<.<.<.>.>.<.( 3 5 6 6 6 6 3 3 6 3 5 5 5 5 5 5 3 3 6 6 3 3 ( <.>.>.<.<.<.*.9 3 3 - X X   ] Z.Z.Z.Z.",
"Z.Z.Z.Z.Z.Z.P . O O 1 5 3 q *.<.>.>.>.>.>.H 3 5 6 6 6 3 3 6 3 6 5 5 5 5 5 5 5 3 3 3 3 3 ~ <.>.>.>.>.>.$.9 3 3 - X X . ] Z.Z.Z.Z.",
"Z.Z.Z.Z.Z.Z.I . X O 1 3 3 e *.>.>.>.>.:.>.W 3 3 3 3 3 3 3 3 3 3 3 3 3 3 3 3 3 3 3 3 3 3 ~ >.>.>.>.>.>.#.7 3 3 1 X X . ] Z.Z.Z.Z.",
"Z.Z.Z.Z.Z.Z.I . X O 7 w w J 9.t.y.i.t.t.t.| r r r r r r r r r r r r r r r r r r r r r r o.y.r.y.t.t.t.9.p r r 3 O X X  .Z.Z.Z.Z.",
"Z.Z.Z.Z.Z.Z.I . X O u d s U x.n.b.b.b.b.n.6.d d s s s s s s s d s s K s s s s d s s s s q.n.n.n.b.b.b.z.L s d r X X . ] Z.Z.Z.Z.",
"Z.Z.Z.Z.Z.Z.I . X O w d s U x.n.b.b.b.b.n.6.a d s s s s s s d K s s s s s s s s s s s s q.n.b.b.b.b.b.h.L s d 7 O X . ] Z.Z.Z.Z.",
"Z.Z.Z.Z.Z.Z.I . . + r s s U x.b.b.b.b.b.n.6.s d s s s s s s s s s s s s s s s s s s s s q.n.n.b.b.b.b.h.L s s r O X X  .Z.Z.Z.Z.",
"Z.Z.Z.Z.Z.Z.I . O O r s a U x.b.b.b.b.b.n.6.a d s s s s d s s s s s s s s s s s s s d a q.n.n.n.b.b.b.h.L s s 7 O X .  .Z.Z.Z.M.",
"Z.Z.Z.Z.Z.Z.I . . @ u s s U l.b.b.b.b.b.n.6.a d s K s s s s d s s s s s K s s s s s K s q.n.v.n.b.b.b.h.L s d r O X . ] Z.Z.Z.] ",
"Z.Z.Z.Z.Z.Z.I . . + r d a U x.b.b.b.b.n.n.6.s s s s s s s s s s s s s s s s s s s s s s q.n.n.n.b.b.n.h.L d d 7 O . X ] Z.Z.Z.] ",
"Z.Z.Z.Z.Z.Z.P   X O u d s U l.n.b.b.b.b.n.6.s s s s d s s s s s s s s s s d d K s s s s q.n.b.b.b.b.n.h.L s d 7 + O .  .Z.Z.Z. .",
"Z.Z.Z.Z.Z.Z.I . O O w d a U x.b.b.b.b.b.n.6.a s s d s s d s s s s d s s s s s s s s s s q.n.b.b.b.b.n.h.L s d 7 O X .  .Z.Z.Z.] ",
"Z.Z.Z.Z.Z.Z.I . X O r d d U z.b.b.b.b.b.n.6.d d s K s s s s s d s s s s s s s s s s s s q.n.b.b.b.b.n.h.L d d r O O    .Z.Z.Z.] ",
"Z.Z.Z.Z.Z.Z.I . O O r d s U x.n.b.b.b.b.n.6.a d s s d s s s s s d s d s s s s d s s s s q.n.b.b.b.b.n.h.L d d 7 O . .  .Z.Z.Z.] ",
"Z.Z.Z.Z.Z.Z.I . X O u d s U l.b.b.b.b.b.n.6.d d s d s s s s s d s s s s s s s s s s s s q.n.b.b.b.b.n.h.L K s 7 O X .  .Z.Z.Z.] ",
"Z.Z.Z.Z.Z.Z.I . X O w d s U x.b.b.b.b.b.n.6.s d s s s s s s s s s s d s s s s s s s s s q.n.b.b.b.b.n.h.L a s u X O .  .Z.Z.Z.] ",
"Z.Z.Z.Z.Z.Z.I . X @ w s s U x.n.b.b.b.b.n.6.a d s s s s s d s s d K s s s s s s s s s s q.n.b.b.b.b.n.h.L s d 7 O X .  .Z.Z.Z.] ",
"Z.Z.Z.Z.Z.Z.I . X O r s s U l.b.b.b.b.b.n.6.d d s d s s s s d d s s s s s s s s s s s s q.n.b.b.b.b.n.g.L s d 7 X X .  .Z.Z.Z.] ",
"Z.Z.Z.Z.Z.Z.I . X O r d s U x.n.b.b.b.b.b.6.s d d d d d d d d d d s s s s s s s d d s s q.n.b.b.b.b.n.h.L s s w O X .  .Z.Z.Z.[ ",
"Z.Z.Z.Z.Z.Z.I . X X w a u L g.j.j.j.j.j.j.3.u i u i u u i i i a a a a a a a a a a a a i 7.l.j.j.b.a.b.s.K u i 7 X X .  .Z.Z.Z.[ ",
"Z.Z.Z.Z.Z.Z.I . X O 2 6 6 e *.,.,.<.,.,.1.( 3 5 6 6 6 6 6 6 6 6 6 6 6 6 6 6 6 6 5 5 7 3 { 1.1.,.:.>.,.%.q 3 7 1 O X .  .Z.Z.Z.] ",
"Z.Z.Z.Z.Z.Z.I . X X 2 6 3 t *.>.>.>.>.>.>.Q 3 3 3 3 3 3 3 3 3 3 3 3 3 3 3 3 3 3 3 3 3 3 ~ >.>.>.>.:.>.#.q 3 6 1 X X .  .Z.Z.Z.] ",
"Z.Z.Z.Z.Z.Z.I . X O 2 3 3 e $.>.>.:.>.>.<.( 3 3 3 3 3 3 3 3 3 3 3 3 3 3 3 3 3 3 3 3 3 3 ~ >.>.>.>.>.>.#.6 3 6 % X X .  .Z.Z.Z.[ ",
"Z.Z.Z.Z.Z.Z.I . X O 4 e e M *.>.>.>.>.>.*.( q q q y p y y y y y y y y y M y y y t q q q / >.>.>.>.>.>.$.M q t 4 X X .  .Z.Z.Z.[ ",
"Z.Z.Z.Z.Z.Z.I . X o / &.*.*.:.>.>.:.,.>.*.*.*.$.$.u.z.j.h.j.z.j.j.k.l.k.k.l.x.k.r.*.*.*.>.>.>.>.>.>.>.>.$.*.*.! + X .  .Z.Z.Z.] ",
"Z.C.Z.Z.Z.Z.I . X @ ) <.>.>.>.>.>.>.>.>.>.>.>.>.>.a.n.n.b.b.n.n.b.b.b.b.n.b.b.m.p.>.>.:.>.>.>.>.>.>.>.>.>.>.>.^ o X .  .Z.Z.Z.] ",
"Z.Z.Z.Z.Z.Z.I . X @ ) <.>.>.>.>.:.<.<.<.>.>.>.>.>.a.b.b.b.b.b.b.b.b.b.b.b.b.b.m.p.>.>.>.>.>.>.>.>.>.>.>.>.>.>.^ o X .  .Z.Z.Z.[ ",
"Z.Z.Z.Z.Z.Z.I . X o ^ &.$.$.*.>.:.&.&.&.&.*.$.$.$.t.j.b.l.l.j.j.j.l.j.j.j.l.l.l.r.$.$.$.&.&.:.:.:.:.:.:.$.$.$.E X X .  .Z.Z.Z.[ ",
"Z.Z.Z.Z.Z.Z.I . X o * > : < R R R R T R R b > > ; A ^ ^ ^ b z z z z z z b ^ ^ ^ V > > > V R R T R R R Y < : ; * X X .  .Z.Z.Z.[ ",
"Z.Z.Z.Z.Z.Z.I . X X $ % $ % b Y Y Y Y Y Y < $ % $ j Y Y b f , , , , , , h Y Y Y j $ % $ j Y Y Y Y Y Y b * $ $ $ X X .  .Z.Z.Z.[ ",
"Z.Z.Z.Z.Z.Z.I . X X $ % % * b Y Y Y Y Y Y j $ $ % j Y Y Y g , , , , , , h Y Y Y j % $ % z Y Y Y Y Y Y b * % % $ X X X [ Z.Z.Z.[ ",
"Z.Z.Z.C.C.C.I . X X $ % % = Y T T Y T Y T j % % % b T T Y g , , , , , , h Y T T j % % % z T T T T T T C % % $ $ X X . [ Z.C.C.[ ",
"Z.Z.b.8.0.0.e . X o $ % % : ) $.&.@.@.&.$.G 2 2 2 W &.$.@.h , , , , , , b @.@.&.G 2 2 2 W $.$.$.$.$.@.) = $ % $ X X X m 0.0.0.o.",
"Z.Z.c.o.-.;.< X X X $ % % > *.>.:.<.<.:.<.Q 5 5 5 ( <.:.:.k , , , , , , b :.>.<.Q 3 6 3 ~ >.>.>.>.>.>.$.= % % $ X X X n -.-.o.-.",
"Z.Z.c.o.-.-.< X X X $ % % > $.>.<.<.>.>.>.Q 5 6 3 ( >.>.:.l , , , , , , c :.>.>.Q 3 5 3 ~ >.>.>.>.>.>.#.= % $ $ X X . n -.-.-.-.",
"Z.Z.c.o.-.-.< . X X $ % $ > $.>.<.:.>.>.>.H 5 6 3 ( >.>.:.x , f , f , , c >.>.>.Q 3 5 3 ~ >.>.>.>.>.>.#.= $ % $ X X . e -.-.-.-.",
"Z.Z.c.-.-.-.8 X X X $ % % > $.>.>.>.>.>.>.Q 3 5 3 ( >.>.>.+.) ) ) +.) ) @.>.>.>.Q 3 5 3 ~ <.>.>.>.>.,.#.= % % $ X X X b -.-.-.2.",
"Z.Z.c.-.-.-.< . X X $ % % : $.>.>.>.>.>.>.H 5 5 6 / >.>.>.>.>.>.>.>.>.>.>.>.>.>.Q 3 5 3 ~ >.>.>.>.>.1.) ; $ $ $ X X X e 2.-.-.-.",
"Z.Z.c.-.-.2.< X X O $ % % > $.>.>.>.>.>.<.Q 3 6 3 ~ <.>.>.<.>.>.>.>.>.>.>.>.>.>.Q 3 4 5 ~ >.>.>.>.>.>.#.= % % $ X X . e -.-.-.-.",
"Z.Z.c.o.-.-.< . X X $ % % > $.>.>.>.>.>.>.Q 2 6 3 ~ >.>.>.:.>.>.:.>.>.>.>.>.:.>.Q 3 6 3 ~ >.>.>.>.>.>.#.= % $ $ X X . b -.-.2.-.",
"Z.Z.c.-.-.-.< X X X $ % $ : $.>.>.>.>.>.:.Q 5 5 3 t N N B B N B m B B B m B B B t 3 3 3 ~ <.>.>.>.>.>.#.= % % $ X X X e 2.-.-.-.",
"Z.Z.c.-.-.-.< X X X $ % % : $.>.>.>.>.<.<.Q 5 5 6 3 3 3 3 3 3 3 3 3 3 3 3 3 3 3 3 6 6 3 ~ >.>.>.>.>.>.#.; $ % $ X X X n -.-.-.-.",
"Z.Z.c.-.-.-.8 X X X $ % $ > &.<.>.>.>.>.>.H 5 5 5 5 5 5 5 5 5 5 5 5 5 5 5 5 5 5 5 3 e 3 ( >.>.>.>.>.>.#.* % $ $ X X X e ;.-.-.-.",
"Z.Z.c.-.-.-.< X X X $ % % > $.>.>.>.>.>.>.Q 5 5 5 5 5 5 5 5 5 5 5 5 5 5 5 5 5 5 5 3 2 3 ( >.>.>.>.>.>.#.; % % $ X X X n 2.-.-.-.",
"Z.Z.c.X.-.-._ D D S % @ o * $.>.>.>.>.>.<.Q 5 5 5 5 5 5 5 5 5 5 5 5 5 5 5 5 5 5 5 5 3 3 ~ >.>.>.>.>.>.+.& o o * D D D ' -.-.-.-.",
"Z.Z.c.-.-.-.-.2.-.o.* X X $ @.>.>.>.>.>.>.H 5 5 5 5 5 5 5 5 5 5 5 5 5 5 5 5 5 5 5 5 3 3 ~ >.>.>.>.>.>.+.$ X X ; -.-.-.-.-.2.-.-.",
"Z.Z.c.o.-.-.-.-.;...* X X & @.>.>.>.>.>.>.Q 5 5 5 5 5 5 5 5 5 5 5 5 5 5 e 2 5 5 5 5 5 3 ( >.>.>.>.>.>.+.# X X ; -.-.-.-.-.-.-.-.",
"Z.Z.c.X.-.o.-.-.-...* X X & @.>.>.>.>.>.<.H 5 5 3 2 5 5 3 5 5 5 3 3 3 3 3 3 2 3 3 3 3 3 ( >.>.>.>.>.>.+.# . X ; -.-.-.-.-.o.o.-.",
"Z.Z.B.c.c.c.0.o.-.X.F m m D =.;.;.;.;.;.;.} P P P P P P P P P P P P P P P P P P P P P P } ;.;.;.;.;.;.X.S m m H o.-.-.w.c.c.c.c.",
"Z.Z.Z.Z.Z.Z.s.o.-.-.-.2.-.-.-.-.-.-.-.-.-.-.-.-.-.-.-.-.-.-.-.-.-.-.-.-.-.-.-.2.-.-.-.-.-.2.-.-.-.-.-.-.-.-.-.-.-.-.-.k.Z.Z.Z.Z.",
"Z.Z.Z.Z.Z.Z.d.X.-.-.-.-.-.-.-.-.-.-.-.2.-.-.-.-.-.-.-.-.-.-.-.-.-.-.-.2.-.-.-.-.-.2.-.-.-.-.-.-.-.-.-.-.-.-.-.-.-.-.-.h.Z.Z.Z.Z.",
"Z.Z.Z.Z.Z.Z.s.X.-.-.-.-.X.-.-.-.-.-.-.-.-.-.-.-.-.-.-.-.-.-.-.-.2.-.-.-.-.-.-.-.-.-.-.-.-.-.-.-.-.-.-.-.o.-.o.o.o.-...h.Z.Z.Z.Z.",
"Z.Z.Z.Z.Z.Z.M.h.h.h.h.h.h.d.2.-.-.-.-.-.-.-.-.-.-.-.-.-.-.-.-.-.-.-.-.-.-.-.-.-.-.-.-.-.-.-.-.-.-.-.-.4.f.h.h.h.h.h.h.N.Z.Z.Z.Z.",
"Z.Z.Z.Z.Z.Z.Z.Z.Z.Z.Z.Z.Z.V.4.-.-.-.-.-.-.-.2.-.-.2.-.2.-.-.-.-.-.-.-.-.-.-.2.-.-.-.-.-.-.2.-.-.-.-.-.8.C.Z.Z.Z.Z.Z.Z.Z.Z.Z.Z.Z.",
"Z.Z.Z.Z.Z.Z.C.Z.Z.Z.Z.Z.Z.V.5.-.-.-.-.-.-.-.-.-.-.-.-.-.-.-.-.-.-.-.-.-.-.-.-.-.-.-.-.-.-.-.-.-.-.-.-.8.C.Z.Z.Z.Z.Z.Z.C.Z.Z.Z.Z.",
"Z.Z.Z.Z.Z.Z.Z.Z.Z.Z.Z.Z.Z.V.2.-.X.-.-.X.X.-.o.-.-.o.o.-.-.o.o.-.o.o.o.-.-.-...-...-.-.X.-.X.-.X.-.-.X.5.V.Z.Z.Z.Z.Z.Z.Z.Z.Z.Z.Z.",
"Z.C.Z.Z.Z.Z.Z.Z.Z.Z.Z.Z.Z.C.h.d.d.d.d.d.d.d.d.d.d.d.d.d.d.d.d.d.d.d.d.d.d.d.d.d.d.d.d.d.d.d.d.d.d.d.d.k.C.Z.Z.Z.Z.Z.Z.Z.Z.Z.Z.Z.",
"Z.Z.Z.Z.Z.Z.Z.Z.Z.Z.Z.Z.Z.Z.Z.Z.Z.Z.Z.Z.Z.Z.Z.Z.Z.Z.Z.Z.Z.Z.Z.Z.Z.Z.Z.Z.Z.Z.Z.Z.Z.Z.Z.Z.Z.Z.Z.Z.Z.Z.Z.Z.Z.Z.Z.Z.Z.Z.Z.Z.Z.Z.Z.Z."
};
