/* XPM */
static char *_2f73ab79353477eea3a193d3950894989B2INLPXBvNJC5A[] = {
/* columns rows colors chars-per-pixel */
"64 64 204 2 ",
"   c #040302",
".  c #0A0604",
"X  c #070804",
"o  c #0B0805",
"O  c #0B0B0C",
"+  c #140B07",
"@  c #130D0A",
"#  c #15100C",
"$  c #1B120B",
"%  c #0A0D18",
"&  c #100F10",
"*  c #141312",
"=  c #1A1512",
"-  c #1C1C1C",
";  c #22170E",
":  c #26180F",
">  c #241A12",
",  c #241B14",
"<  c #2B1D13",
"1  c #301F14",
"2  c #2D2116",
"3  c #24211E",
"4  c #2D231C",
"5  c #352316",
"6  c #3A2517",
"7  c #33241A",
"8  c #3B2719",
"9  c #36281B",
"0  c #3D291B",
"q  c #0E1526",
"w  c #201D24",
"e  c #1F2021",
"r  c #17233A",
"t  c #242424",
"y  c #2B2625",
"u  c #2C2C2C",
"i  c #322B25",
"p  c #3D2F23",
"a  c #37312C",
"s  c #3B312B",
"d  c #2A2836",
"f  c #2F3030",
"g  c #333334",
"h  c #3B3433",
"j  c #3A3937",
"k  c #3B3B3B",
"l  c #422D1D",
"z  c #45301F",
"x  c #4F381F",
"c  c #513A1F",
"v  c #402F21",
"b  c #463121",
"n  c #4B3523",
"m  c #4F3825",
"M  c #41352C",
"N  c #4D392B",
"B  c #513624",
"V  c #513A26",
"C  c #533D2A",
"Z  c #583E2D",
"A  c #443A34",
"S  c #483D37",
"D  c #513F33",
"F  c #5D432F",
"G  c #4B413B",
"H  c #5C4331",
"J  c #5B4634",
"K  c #53473B",
"L  c #5B4A3C",
"P  c #624734",
"I  c #634935",
"U  c #634B3B",
"Y  c #6B4E3A",
"T  c #6D533C",
"R  c #72543F",
"E  c #2C3445",
"W  c #393946",
"Q  c #24366B",
"!  c #243A74",
"~  c #30447C",
"^  c #434344",
"/  c #484445",
"(  c #4A4949",
")  c #514644",
"_  c #5F524B",
"`  c #5F584C",
"'  c #4C4C52",
"]  c #535354",
"[  c #5D5856",
"{  c #5C5B5B",
"}  c #604E40",
"|  c #655747",
" . c #715340",
".. c #755A44",
"X. c #7C5C45",
"o. c #7E5E48",
"O. c #615956",
"+. c #645D59",
"@. c #6D604E",
"#. c #7A624D",
"$. c #66625E",
"%. c #6B635A",
"&. c #786958",
"*. c #7E705E",
"=. c #454D64",
"-. c #5E5F63",
";. c #5F6161",
":. c #636362",
">. c #696867",
",. c #6D6C6B",
"<. c #6D6B79",
"1. c #6F7074",
"2. c #737373",
"3. c #74757A",
"4. c #77787E",
"5. c #7A7A7E",
"6. c #84634C",
"7. c #88664F",
"8. c #876952",
"9. c #916E55",
"0. c #86735E",
"q. c #977157",
"w. c #947259",
"e. c #9B755B",
"r. c #9F795E",
"t. c #A17B5F",
"y. c #887568",
"u. c #9F7C62",
"i. c #8D7A76",
"p. c #907C78",
"a. c #A27D62",
"s. c #95816A",
"d. c #968A75",
"f. c #9E8C74",
"g. c #A58166",
"h. c #A9856A",
"j. c #AC8F74",
"k. c #B08E73",
"l. c #AD9075",
"z. c #A6927A",
"x. c #2D4989",
"c. c #3A558E",
"v. c #304D93",
"b. c #385799",
"n. c #365CA5",
"m. c #395EA5",
"M. c #3D65A9",
"N. c #3D64AD",
"B. c #3D65B3",
"V. c #3C68B2",
"C. c #44598D",
"Z. c #415E9B",
"A. c #576183",
"S. c #7B7C82",
"D. c #727489",
"F. c #7A7D93",
"G. c #787D99",
"H. c #4E6BAA",
"J. c #677DA8",
"K. c #7F8085",
"L. c #7D829A",
"P. c #6E86B2",
"I. c #848485",
"U. c #888584",
"Y. c #848589",
"T. c #8A8A8A",
"R. c #8C8D91",
"E. c #84889D",
"W. c #8F9094",
"Q. c #929294",
"!. c #96979B",
"~. c #97989C",
"^. c #9D9D9E",
"/. c #AB9B82",
"(. c #B49E83",
"). c #B3A186",
"_. c #B4A38A",
"`. c #B8A68B",
"'. c #BAA98E",
"]. c #BDAD92",
"[. c #BEB095",
"{. c #898CA1",
"}. c #8A90A5",
"|. c #999AA4",
" X c #9B9EAA",
".X c #A2A2A4",
"XX c #A4A5AA",
"oX c None",
"OX c #A1A4B3",
"+X c None",
"@X c #B5B5B5",
"#X c #B5B6B8",
"$X c #BCBCBC",
"%X c #C0AF94",
"&X c #BEBFC0",
"*X c #C1C1C1",
"=X c #C8C7C8",
"-X c #CBCBCB",
";X c None",
":X c None",
">X c None",
",X c None",
"<X c None",
"1X c None",
/* pixels */
"1X<X<X<X<X<X<X<X<X<X<X<X<X<X<X<X<X<X<X<X<X<X<X<X<X<X<X<X<X<X<X<X<X<X<X<X<X<X<X<X<X<X<X<X<X<X<X<X<X<X<X<X<X<X<X<X<X<X<X<X<X<X<X<X",
"1X<X<X<X<X<X<X<X<X<X<X<X<X<X<X<X<X<X<X<X<X<X<X<X<X<X<X<X<X<X<X<X<X<X<X<X<X<X<X<X<X<X<X<X<X<X<X<X<X<X<X<X<X<X<X<X<X<X<X<X<X<X<X<X",
"1X<X<X<X<X<X<X<X<X<X<X<X<X<X<X<X<X<X<X<X<X<X<X<X<X<X<X<X<X<X<X<X<X<X<X<X<X<X<X<X<X<X<X<X<X<X<X<X<X<X<X<X<X<X<X<X<X<X<X<X<X<X<X<X",
"1X<X<X<X<X<X<X<X<X<X<X<X<X<X<X<X<X<X<X<X<X<X<X<X<X<X<X<X<X<X<X<X<X<X<X<X<X<X<X<X<X<X<X<X<X<X<X<X<X<X<X<X<X<X<X<X<X<X<X<X<X<X<X<X",
"1X<X<X<X<X<X<X<X<X<X<X<X<X<X<X<X<X<X<X<X<X<X<X<X<X<X<X<X<X<X<X<X<X<X<X<X<X<X<X<X<X<X<X<X<X<X<X<X<X<X<X<X<X<X<X<X<X<X<X<X<X<X<X<X",
"1X<X<X<X<X<X<X<X<X<X<X<X<X<X<X<X<X<X<X<X<X<X<X<X<X<X<X<X<X<X<X<X<X<X<X<X<X<X<X<X<X<X<X<X<X<X<X<X<X<X<X<X<X<X<X<X<X<X<X<X<X<X<X<X",
"1X<X<X<X<X<X<X<X<X<X<X<X<X<X<X<X<X<X<X<X<X<X<X<X<X<X<X<X<X<X<X<X<X<X<X<X<X<X<X<X<X<X<X<X<X<X<X<X<X<X<X<X<X<X<X<X<X<X<X<X<X<X<X<X",
"1X<X<X<X<X<X<X<X<X<X<X<X<X<X<X<X<X<X<X<X<X<X<X<X<X<X<X<X<X<X<X<X<X,X<X<X<X<X<X<X<X<X<X<X<X<X<X<X<X<X<X<X<X<X<X<X<X<X<X<X<X<X<X<X",
"1X<X<X<X<X<X<X<X<X<X<X<X<X<X<X<X<X<X<X<X<X<X1X<X<X1X<X1X<X<X<X<X<X<X<X<X<X<X<X<X<X<X<X<X<X<X<X<X<X<X<X<X<X<X<X<X<X<X<X<X<X<X<X<X",
"1X<X<X<X<X<X<X<X<X<X<X<X<X<X<X<X<X<X<X<X<X1X1X1X1X1X1X1X1X<X<X<X1X1X1X1X<X<X<X<X<X<X<X<X<X<X<X<X<X<X<X<X<X<X<X<X<X<X<X<X<X1X<X<X",
"1X<X<X<X<X<X<X<X<X<X<X<X<X<X<X<X<X<X<X>X@XoXoXoXoXoXoXoXoX-X<X>X$XoXoXoX$X,X<X<X<X<X<X<X<X<X<X<X<X<X<X<X<X<X<X<X<X<X<X<X<X<X<X<X",
"1X<X<X<X<X<X<X<X<X<X<X<X<X<X<X<X<X<X1X$X^ u u u f u u u f I.,X$X{ u u u { >X1X<X<X<X<X<X<X<X<X<X<X<X<X<X<X<X<X<X<X<X<X<X<X<X<X<X",
"1X<X<X<X<X<X<X<X<X<X<X<X<X<X<X<X<X<X1X@X-   X o X X X   X :.=X.Xh X     f #X;X;X;X:X,X<X<X<X<X<X<X<X<X<X<X<X<X<X<X<X<X<X<X<X<X<X",
"1X<X<X<X<X<X<X<X<X<X<X<X<X<X<X<X<X<X<X@Xt X : 0 0 0 9 2 > i ^ S p 5 $   & k ^ ^ ( I.>X1X<X<X<X<X<X<X<X<X<X<X<X<X<X<X<X<X<X<X<X<X",
"1X<X<X<X<X<X<X<X<X<X<X<X<X<X<X<X<X<X1X#Xt o 2 V V m m z 6 $   # 0 V < X         O { -X<X<X<X<X<X<X<X<X<X<X<X<X<X<X<X<X<X<X<X<X<X",
"1X<X<X<X<X<X<X<X<X<X<X<X<X<X<X<X<X<X1X#Xt X # > 7 n m n z 5 ; < z m 5 : : 2 < < 5 A { 5.=X<X<X<X<X<X<X<X<X<X<X<X<X<X<X<X<X<X<X<X",
"1X<X<X<X<X<X<X<X<X<X<X<X<X<X<X<X<X<X1X@Xy     X $ b V V V b 8 0 b m l 8 0 n m m n 7 & u oX1X<X<X<X<X<X<X<X<X<X<X<X<X<X<X<X<X<X<X",
"1X<X<X<X<X<X<X<X<X<X<X<X<X<X<X<X<X*XQ.2.4 $ $ = 2 n V V V n b b V V n l b B N V V 8 < i ,.Q.&X,X<X<X<X<X<X<X<X<X<X<X<X<X<X<X<X<X",
"1X<X<X<X<X<X<X<X<X<X<X<X<X<X<X<X,XW.y 3 2 5 0 x m m V V m V m V V V V m B V V V m m b b y y Y.<X<X<X<X<X<X<X<X<X<X<X<X<X<X<X<X<X",
"1X<X<X<X<X<X<X<X<X<X<X<X<X<X>X=X@X>.@ @ 5 z n m V C V V V V V V V V C V V V V V V V V z ; @ +.@X-X,X<X<X<X<X<X<X<X<X<X<X<X<X<X<X",
"1X<X<X<X<X<X<X<X<X<X<X<X<X1X-X2.k i : 5 z n m V V V V V C V V C V V V V V V V V V V V m v 0 s k ,.-X1X<X<X<X<X<X<X<X<X<X<X<X<X<X",
"1X<X<X<X<X<X<X<X<X<X<X<X<X1X&X(   $ 6 l n m V V V B n V V V C V V V B m m m m B m V V V V B <   ^ &X1X<X<X<X<X<X<X<X<X<X<X<X<X<X",
"1X<X<X<X<X<X<X<X<X<X<X<X<X1X*X( X $ 5 l n V V V n z z n V V C C V V b l v l b n V V V V V B ,   ^ *X1X1X<X<X<X<X<X<X<X<X<X<X<X<X",
"1X<X<X<X<X<X<X<X<X<X<X<X1X1X*X( X $ 5 z n m V V n 0 l n V V V V V V b 0 0 0 9 n V V V m B m <   / *X1X<X<X<X<X<X<X<X<X<X<X<X<X<X",
"1X<X<X<X<X<X<X<X<X<X<X<X<X1X*X( X $ 5 l l z z z l 8 l z V V V V V V l 0 m U Y R ..P n b n B 7 $ a >.T.$X<X<X<X<X<X<X<X<X<X<X<X<X",
"1X<X<X<X<X<X<X<X<X<X<X,X1X1X*X(   $ 5 8 0 0 l 8 l 8 8 x V V V V V m l 6 V 9.e.t.t...v 6 n m l 6 < # t T.<X<X,X<X<X<X<X<X<X<X<X<X",
"1X<X<X<X<X<X<X<X<X<X<X<X<X1X*X( . $ 5 0 l l l 8 6 0 l z V V V m n n B Z Y e.a.a.a.7.H N m n v l : X e Y.<X1X<X<X<X<X<X<X<X<X<X<X",
"1X<X<X<X<X<X<X<X<X<X<X<X<X1X*X(   $ 5 l z b l 8 8 6 0 b V V V n l l Y q.e.t.t.a.a.e.e.7.Z 0 8 8 < o e T.<X<X<X<X<X<X<X<X<X<X<X<X",
"1X<X<X<X<X<X<X<X<X<X<X<X<X1X*X( . $ 6 l n m z l z n m n m m V m n n R 9.e.a.h.h.g.u.q.6.N 1 5 8 < o 3 T.<X1X<X<X<X<X<X<X<X<X<X<X",
"1X<X<X<X<X<X<X<X<X<X<X<X<X1X*X( . $ 5 l n V m n F #.o.C 0 b m F ..6.P M U z.(.(.(.y.D 0 : + : 8 < . - U.<X<X<X<X<X<X<X<X<X<X<X<X",
"1X<X<X<X<X<X<X<X<X<X<X<X<X1X*X( . $ 5 l n V V V R t.e.F 0 b N P q.a.H @ s /.[.[.%X*.< . .   $ 1 < @ t T.<X1X<X<X<X<X<X<X<X<X<X<X",
"1X<X<X<X<X<X<X<X<X<X<X<X<X1X*X)   # 5 0 l z n V T e.r.X. .H l J u.l.} @ M /.].[.[.*.< o     o $ a :.U.$X<X<X<X<X<X<X<X<X<X<X<X<X",
"1X<X<X<X<X<X<X<X<X<X<X<X<X1X*X( X @ 7 8 0 0 z V T e.g.t.t.R 6 V z.'.| @ M /.].[.].*., .         ^ &X1X<X<X<X<X<X<X<X<X<X<X<X<X<X",
"1X<X<X<X<X<X<X<X<X<X<X<X<X1X;XT.] h > > 5 0 z z Y e.g.t.g.8.| &./.'.y.G @./.].].].s.| A =   u ] I.-X1X<X<X<X<X<X<X<X<X<X<X<X<X<X",
"1X<X<X<X<X<X<X<X<X<X<X<X<X<X,X,X;X2.X o 5 6 8 p P e.g.t.t.l.(._.`.'._./.).'.].].]._._.d.a   >.;X,X,X<X<X<X<X<X<X<X<X<X<X<X<X<X<X",
"1X<X<X<X<X<X<X<X<X<X<X<X<X<X<X1X<X^.^ h 2 < 5 8 Z 6.9.e.t.l.`.`.'.].].].].].].].].`.].f.a   2.<X1X<X<X<X<X<X<X<X<X<X<X<X<X<X<X<X",
"1X<X<X<X<X<X<X<X<X<X<X<X<X<X<X<X<X;X$XT.3 O : 6 l x F 7.a.h.h.k._.[.].].].].].].].(.k.w.7   2.,X<X<X<X<X<X<X<X<X<X<X<X<X<X<X<X<X",
"1X<X<X<X<X<X<X<X<X<X<X<X<X<X<X<X<X<X1X&Xk 3 2 5 6 5 l X.q.r.t.h.(.`.`.`._._.`.`.`.z.e.o.h e I.,X<X<X<X<X<X<X<X<X<X<X<X<X<X<X<X<X",
"1X<X<X<X<X<X<X<X<X<X<X<X<X<X<X<X<X<X1X:X.XI.G > ; 5 l Z I X.r.g.h.l.l.l.j.j.j.l.l.8.D G 2.Q.$X,X<X<X<X<X<X<X<X<X<X<X<X<X<X<X<X<X",
"1X<X<X<X<X<X<X<X<X<X<X<X<X<X<X<X<X<X<X1X1X:X;.& + 5 8 6 8 I q.r.u.u.a.u.a.a.a.a.t.L $ t oX1X<X<X<X<X<X<X<X<X<X<X<X<X<X<X<X<X<X<X",
"1X,X<X<X<X<X<X<X<X<X<X<X<X<X<X<X<X<X<X<X1X>X$.O @ 5 6 6 0 F X.8.i.p.p.p.p.p.i.#...b @ t oX1X<X<X<X<X<X<X<X<X<X<X<X<X<X<X<X<X<X<X",
"1X<X<X<X<X<X<X<X<X<X<X<X<X<X<X<X<X<X<X<X1X>X:.O o 2 6 6 0 z V L <.G.F.F.F.F.D.) l : O t @X1X1X<X<X<X<X<X<X<X<X<X<X<X<X<X<X<X<X<X",
"1X<X<X<X<X<X<X<X<X<X<X<X<X<X<X<X<X<X<X:X$X.X:.j 9 9 6 p z z c L <.G.F.F.G.{.F.) i 1 7 A I.@X=X<X<X<X<X<X<X<X<X<X<X<X<X<X<X<X<X<X",
"1X<X<X<X<X<X<X<X<X<X<X<X<X<X<X<X<X<X<X$Xj u %.z.0.z 5 p n m c L <.G.F.F.E. X|._ 8 Z 7.o.s , I.,X<X<X<X<X<X<X<X<X<X<X<X<X<X<X<X<X",
"1X<X<X<X<X<X<X<X<X<X<X<X<X<X<X<X<X<X1X@X3 * &.'.f.J z n m V c L <.G.E.G.E.OX X| 1 P a.9.1   2.,X<X<X<X<X<X<X<X<X<X<X<X<X<X<X<X<X",
"1X<X<X<X<X<X<X<X<X<X<X<X<X<X<X<X<X<X1X@Xe * &.%X`.z.s.T F V m L <.G.E. X X+X X| l I a.q.y   2.,X<X<X<X<X<X<X<X<X<X<X<X<X<X<X<X<X",
"1X<X<X<X<X<X<X<X<X<X<X<X<X<X<X<X<X<X1X#Xg 3 %._.'.'.z.#.x m B L <.L.}.OXOXOX X| 6 F q.7.M = 5.,X<X<X<X<X<X<X<X<X<X<X<X<X<X<X<X<X",
"1X<X<X<X<X<X<X<X<X<X<X<X<X<X<X<X<X,X<X;XT.2.$.` | &.#.J m m c K A.H.J.P.P.P.J.' 6 l N D >.5.@X,X<X<X<X<X<X<X<X<X<X<X<X<X<X<X<X<X",
"1X<X<X<X<X<X<X<X<X<X<X<X<X<X<X<X<X<X<X<X<X-X;.- & 5 l b V V m / C.B.N.N.N.V.M.W 9 > O u .X<X,X<X<X<X<X<X<X<X<X<X<X<X<X<X<X<X<X<X",
"1X<X<X<X<X<X<X<X<X<X<X<X<X<X<X<X<X<X<X>X;X&X] O % d W ^ ' ' ' =.c.n.M.N.N.V.m.E , , t ^ ~.-X:X<X<X<X<X<X<X<X<X<X<X<X<X<X<X<X<X<X",
"1X<X<X<X<X<X<X<X<X<X<X<X<X<X<X<X<X<X1X:X!.S.g O q ! x.b.M.M.M.M.v.x.b.B.B.V.M.r O f >.3.S.Y.#X,X<X<X<X<X<X<X<X<X<X<X<X<X<X<X<X<X",
"1X<X<X<X<X<X<X<X<X<X<X<X<X<X<X<X<X>X:X*XR.<.g O q Q ! c.Z.b.v.x.! Q ~ b.b.Z.c.r O g 3.I.S.S.oX:X>X,X<X<X<X<X<X<X<X<X<X<X<X<X<X<X",
"1X<X<X<X<X<X<X<X<X<X<X<X<X<X<X<X,X&XQ.R.K.3.g o * u s S S d q % % % w g h G S = o f <.Y.S.S.T.R.XX:X<X<X<X<X<X<X<X<X<X<X<X<X<X<X",
"1X<X<X<X<X<X<X<X<X<X<X<X<X<X<X<X,X#XS.S.S.3.k * = 8 l B C 7 * O % O , 0 b V N = * k 1.S.S.S.S.4.Q.;X<X<X<X<X<X<X<X<X<X<X<X<X<X<X",
"1X<X<X<X<X<X<X<X<X<X<X<X<X<X<X<X,X#X4.S.S.S.-.] ] [ O.+.%.[ ' ' ' ' ] O.O.%.+.] ' -.4.S.S.S.5.3.!.;X<X<X<X<X<X<X<X<X<X<X<X<X<X<X",
"1X<X<X<X<X<X<X<X<X<X<X<X<X<X<X<X,X@XS.S.S.S.5.S.S.S.S.4.5.S.S.S.S.S.S.4.5.5.5.S.S.S.S.S.S.S.S.S.!.;X<X<X<X<X<X<X<X<X<X<X<X<X<X<X",
"1X<X<X<X<X<X<X<X<X<X<X<X<X<X<X<X,X-X+X|.Y.S.S.S.S.S.S.S.S.S.S.S.S.S.S.S.S.S.S.K.S.S.S.S.S.S.!.XX$X>X<X<X<X<X<X<X<X<X<X<X<X<X<X<X",
"1X<X<X<X<X<X<X<X<X<X<X<X<X<X<X<X<X<X,X;XR.4.S.S.S.S.S.S.S.S.K.S.S.S.S.K.S.S.S.S.S.S.S.S.S.S.+X,X,X<X<X<X<X<X<X<X<X<X<X<X<X<X<X<X",
"1X<X<X<X<X<X<X<X<X<X<X<X<X<X<X<X<X<X1X>XXX!.!.!.~.~.|.!.~.~.!.~.~.~.~.~.!.|.!.!.~.!.!.!.!.!.&X<X<X<X<X<X<X<X<X<X<X<X<X<X<X<X<X<X",
"1X<X<X<X<X<X<X<X<X<X<X<X<X<X<X<X<X,X<X,X>X>X>X>X>X>X>X>X>X>X>X>X>X>X>X>X>X>X>X>X>X>X>X>X>X>X,X,X<X<X<X<X<X<X<X<X<X<X<X<X<X<X<X<X",
"1X<X<X<X<X<X<X<X<X<X<X<X<X<X<X<X<X<X<X<X<X<X<X<X1X<X<X1X<X<X1X1X1X<X<X<X<X<X1X<X<X<X1X<X<X<X<X<X<X<X<X<X<X<X<X<X<X<X<X<X<X<X<X<X",
"<X<X<X<X<X<X<X<X<X<X<X<X<X<X<X<X<X<X<X<X<X<X<X<X<X<X<X<X<X<X<X,X<X<X<X<X<X<X<X<X<X<X<X<X<X<X<X<X<X<X<X<X<X<X<X<X<X<X<X<X<X<X<X<X",
"1X<X<X<X<X<X<X<X<X<X<X<X<X<X<X<X<X<X<X<X<X<X<X<X<X<X<X<X<X<X<X<X<X<X<X<X<X<X<X<X<X<X<X<X<X<X<X<X<X<X<X<X<X<X<X<X<X<X<X<X<X<X<X<X",
"1X<X<X<X<X<X<X<X<X<X<X<X<X<X<X<X<X<X<X<X<X<X<X<X<X<X<X<X<X<X<X<X<X<X<X<X<X<X<X<X<X<X<X<X<X<X<X<X<X<X<X<X<X<X<X<X<X<X<X<X<X<X<X<X"
};
