/* XPM */
static char *e495fa4c1d29498f9eacbb6f36163ec36VbV1AJccMGvaf7u[] = {
/* columns rows colors chars-per-pixel */
"64 64 143 2 ",
"   c #959CB1",
".  c #969DB3",
"X  c #858795",
"o  c #625B58",
"O  c #625A57",
"+  c #615956",
"@  c #737076",
"#  c #949CB1",
"$  c #949BB1",
"%  c #B1B6C4",
"&  c #687394",
"*  c #6A7596",
"=  c #505468",
"-  c #1C100D",
";  c #1B0F0B",
":  c #1A0E09",
">  c #36323A",
",  c #687393",
"<  c #677293",
"1  c #939AB0",
"2  c #6A7595",
"3  c #6B7697",
"4  c #51556A",
"5  c #1E130F",
"6  c #1D110D",
"7  c #1E120E",
"8  c #1C100B",
"9  c #37333C",
"0  c #697494",
"q  c #6B7798",
"w  c #52556A",
"e  c #1E120F",
"r  c #1C0F0B",
"t  c #697495",
"y  c #3D3A45",
"u  c #3C3A45",
"i  c #423A3C",
"p  c #4D3829",
"a  c #4D3828",
"s  c #483932",
"d  c #3B3843",
"f  c #75747B",
"g  c #1B0F0A",
"h  c #37261B",
"j  c #6F543C",
"k  c #70553C",
"l  c #71563D",
"z  c #533D2B",
"x  c #1D100B",
"c  c #5F5754",
"v  c #37261C",
"b  c #6E533B",
"n  c #533D2C",
"m  c #605856",
"M  c #1C110D",
"N  c #312118",
"B  c #59422F",
"V  c #5A4230",
"C  c #5A4330",
"Z  c #543E2D",
"A  c #4A3728",
"S  c #4E3A2A",
"D  c #5B4330",
"F  c #453224",
"G  c #2C1D16",
"H  c #4A3627",
"J  c #4B3627",
"K  c #402F22",
"L  c #2F231A",
"P  c #2F221A",
"I  c #37281E",
"U  c #4C3728",
"Y  c #3B2A1E",
"T  c #412F23",
"R  c #30231A",
"E  c #30241B",
"W  c #31241B",
"Q  c #38291E",
"!  c #3C2A1F",
"~  c #332319",
"^  c #5F4733",
"/  c #604833",
"(  c #614834",
")  c #38281E",
"_  c #412F22",
"`  c #2A1E16",
"'  c #130E0A",
"]  c #140E0B",
"[  c #120D0A",
"{  c #291E16",
"}  c #5E4632",
"|  c #614934",
" . c #493526",
".. c #37271C",
"X. c #57422F",
"o. c #3D2C20",
"O. c #251B13",
"+. c black",
"@. c #1F1711",
"#. c #6D523B",
"$. c #71553D",
"%. c #70543C",
"&. c #57412F",
"*. c #3C2C20",
"=. c #4D3728",
"-. c #1F1710",
";. c #6C523A",
":. c #70553D",
">. c #58422F",
",. c #221711",
"<. c #2D2218",
"1. c #2E2218",
"2. c #231B13",
"3. c #130E0B",
"4. c #19120D",
"5. c #1F1610",
"6. c #0F0B08",
"7. c #0C0906",
"8. c #2C2118",
"9. c #281C15",
"0. c #140C09",
"q. c #0A0604",
"w. c #0C0705",
"e. c #0A0503",
"r. c #34312F",
"t. c #898989",
"y. c #8B8B8B",
"u. c None",
"i. c #8D8D8D",
"p. c #5F5E5D",
"a. c #0D0806",
"s. c #545150",
"d. c #4C4C4C",
"f. c None",
"g. c None",
"h. c #F4F4F4",
"j. c gray62",
"k. c #010101",
"l. c gray29",
"z. c #E9E9E9",
"x. c None",
"c. c #9B9B9B",
"v. c white",
/* pixels */
"      . X o O O O O O O O O O O O O O O O O O O O O O O O O O O O O O O O O O O O O O O O O O O O O O O O O O O O O + @ #   $ % ",
"& & & * = - ; ; ; ; ; ; ; ; ; ; ; ; ; ; ; ; ; ; ; ; ; ; ; ; ; ; ; ; ; ; ; ; ; ; ; ; ; ; ; ; ; ; ; ; ; ; ; ; ; ; ; ; : > , & < 1 ",
"2 2 2 3 4 5 6 7 7 7 7 7 7 7 7 7 7 7 7 7 7 7 7 7 7 7 7 7 7 7 7 7 7 7 7 7 7 7 7 7 7 7 7 7 7 7 7 7 7 7 7 7 7 7 7 7 7 7 8 9 0 2 & $ ",
"2 2 2 q w e 6 6 6 6 6 6 6 6 6 6 6 6 6 6 6 6 6 6 6 6 6 6 6 6 6 6 6 6 6 6 6 6 6 6 6 6 6 6 6 6 6 6 6 6 6 6 6 6 6 6 6 6 r 9 2 2 t # ",
"y y y u i p p p p p p p p p p p p p p p p p p p p p p p p p p p p p p p p p p p p p p p p p p p p p p p p p p p p p a s y y d f ",
"8 8 8 g h j k k k k k k k k k k k k k k k k k k k k k k k k k k k k k k k k k k k k k k k k k k k k k k k k k k k k l z x 8 : c ",
"7 7 7 - v b j j j j j j j j j j j j j j j j j j j j j j j j j j j j j j j j j j j j j j j j j j j j j j j j j j j j k n 7 6 ; m ",
"7 7 7 - v b j j j j j j j j j j j j j j j j j j j j j j j j j j j j j j j j j j j j j j j j j j j j j j j j j j j j k n 7 6 ; m ",
"7 7 7 - v b j j j j j j j j j j j j j j j j j j j j j j j j j j j j j j j j j j j j j j j j j j j j j j j j j j j j k n 7 6 ; m ",
"7 7 7 - v b j j j j j j j j j j j j j j j j j j j j j j j j j j j j j j j j j j j j j j j j j j j j j j j j j j j j k n 7 6 ; m ",
"7 7 7 - v b j j j j j j j j j j j j j j j j j j j j j j j j j j j j j j j j j j j j j j j j j j j j j j j j j j j j k n 7 6 ; m ",
"7 7 7 - v b j j j j j j j j j j j j j j j j j j j j j j j j j j j j j j j j j j j j j j j j j j j j j j j j j j j j k n 7 6 ; m ",
"7 7 7 M N B V C Z A A A A A A A A A A A A A A A A A A A A A A A A A A A A A A A A A A A A A A A A A A A A A A S V V D F 7 6 ; m ",
"7 7 7 6 G H J J K L L L L L L L L L L L L L L L L L L L L L L L L L L L L L L L L L L L L L L L L L L L L L P I H J U Y 7 6 ; m ",
"7 7 7 6 G J U U T R E W W W W W W W W W W W W W W W W W W W W W W W W W W W W W W W W W W W W W W W W W W W R Q J U U ! 7 6 ; m ",
"7 7 7 6 G J J U T R E W R R R R W W W W W W W W W W W W W W W W W W W W W W W W W W W W W W W W W W W W W W R Q J J U ! 7 6 ; m ",
"7 7 7 M ~ ^ / ( S R R R ) _ K _ ` ' ] ] ] ] ] ] ] ] ] ] ] ] ] ] ] ] ] ] ] ] ] ] ] ] ] ] ] ] ] ] ] ] ] ] ] ] [ { } / |  .7 6 ; m ",
"7 7 7 - ..b j k X.R R R o.U U a O.+.+.+.+.+.+.+.+.+.+.+.+.+.+.+.+.+.+.+.+.+.+.+.+.+.+.+.+.+.+.+.+.+.+.+.+.+.+.@.#.j $.n 7 6 ; m ",
"7 7 7 - v b j %.&.R R R *.U U =.O.+.+.+.+.+.+.+.+.+.+.+.+.+.+.+.+.+.+.+.+.+.+.+.+.+.+.+.+.+.+.+.+.+.+.+.+.+.+.-.;.j k n 7 6 ; m ",
"7 7 7 - v b j %.&.R R R *.U U =.O.+.+.+.+.+.+.+.+.+.+.+.+.+.+.+.+.+.+.+.+.+.+.+.+.+.+.+.+.+.+.+.+.+.+.+.+.+.+.-.;.j k n 7 6 ; m ",
"7 7 7 - v b j %.&.R R R *.U U =.O.+.+.+.+.+.+.+.+.+.+.+.+.+.+.+.+.+.+.+.+.+.+.+.+.+.+.+.+.+.+.+.+.+.+.+.+.+.+.-.;.j k n 7 6 ; m ",
"7 7 7 - v b j %.&.R R R *.U U =.O.+.+.+.+.+.+.+.+.+.+.+.+.+.+.+.+.+.+.+.+.+.+.+.+.+.+.+.+.+.+.+.+.+.+.+.+.+.+.-.;.j k n 7 6 ; m ",
"7 7 7 - v b j %.&.R R R *.U U =.O.+.+.+.+.+.+.+.+.+.+.+.+.+.+.+.+.+.+.+.+.+.+.+.+.+.+.+.+.+.+.+.+.+.+.+.+.+.+.-.;.j k n 7 6 ; m ",
"7 7 7 - v b j %.&.R R R *.U U =.O.+.+.+.+.+.+.+.+.+.+.+.+.+.+.+.+.+.+.+.+.+.+.+.+.+.+.+.+.+.+.+.+.+.+.+.+.+.+.-.;.j k n 7 6 ; m ",
"7 7 7 - v b j %.&.R R R *.U U =.O.+.+.+.+.+.+.+.+.+.+.+.+.+.+.+.+.+.+.+.+.+.+.+.+.+.+.+.+.+.+.+.+.+.+.+.+.+.+.-.;.j k n 7 6 ; m ",
"7 7 7 - v b j %.&.R R R *.U U =.O.+.+.+.+.+.+.+.+.+.+.+.+.+.+.+.+.+.+.+.+.+.+.+.+.+.+.+.+.+.+.+.+.+.+.+.+.+.+.-.;.j k n 7 6 ; m ",
"7 7 7 - v b j %.&.R R R *.U U =.O.+.+.+.+.+.+.+.+.+.+.+.+.+.+.+.+.+.+.+.+.+.+.+.+.+.+.+.+.+.+.+.+.+.+.+.+.+.+.-.;.j k n 7 6 ; m ",
"7 7 7 - v b j %.&.R R R *.U U =.O.+.+.+.+.+.+.+.+.+.+.+.+.+.+.+.+.+.+.+.+.+.+.+.+.+.+.+.+.+.+.+.+.+.+.+.+.+.+.-.;.j k n 7 6 ; m ",
"7 7 7 - v b j %.&.R R R *.U U =.O.+.+.+.+.+.+.+.+.+.+.+.+.+.+.+.+.+.+.+.+.+.+.+.+.+.+.+.+.+.+.+.+.+.+.+.+.+.+.-.;.j k n 7 6 ; m ",
"7 7 7 - v b j %.&.R R R *.U U =.O.+.+.+.+.+.+.+.+.+.+.+.+.+.+.+.+.+.+.+.+.+.+.+.+.+.+.+.+.+.+.+.+.+.+.+.+.+.+.-.;.j k n 7 6 ; m ",
"7 7 7 - v b j %.&.R R R *.U U =.O.+.+.+.+.+.+.+.+.+.+.+.+.+.+.+.+.+.+.+.+.+.+.+.+.+.+.+.+.+.+.+.+.+.+.+.+.+.+.-.;.j k n 7 6 ; m ",
"7 7 7 - v b j %.&.R R R *.U U =.O.+.+.+.+.+.+.+.+.+.+.+.+.+.+.+.+.+.+.+.+.+.+.+.+.+.+.+.+.+.+.+.+.+.+.+.+.+.+.-.;.j k n 7 6 ; m ",
"7 7 7 - v b j %.&.R R R *.U U =.O.+.+.+.+.+.+.+.+.+.+.+.+.+.+.+.+.+.+.+.+.+.+.+.+.+.+.+.+.+.+.+.+.+.+.+.+.+.+.-.;.j k n 7 6 ; m ",
"7 7 7 - v b j %.&.R R R *.U U =.O.+.+.+.+.+.+.+.+.+.+.+.+.+.+.+.+.+.+.+.+.+.+.+.+.+.+.+.+.+.+.+.+.+.+.+.+.+.+.-.;.j k n 7 6 ; m ",
"7 7 7 - v b j %.&.R R R *.U U =.O.+.+.+.+.+.+.+.+.+.+.+.+.+.+.+.+.+.+.+.+.+.+.+.+.+.+.+.+.+.+.+.+.+.+.+.+.+.+.-.;.j k n 7 6 ; m ",
"7 7 7 - v b j %.&.R R R *.U U =.O.+.+.+.+.+.+.+.+.+.+.+.+.+.+.+.+.+.+.+.+.+.+.+.+.+.+.+.+.+.+.+.+.+.+.+.+.+.+.-.;.j k n 7 6 ; m ",
"7 7 7 - v b j %.&.R R R *.U U =.O.+.+.+.+.+.+.+.+.+.+.+.+.+.+.+.+.+.+.+.+.+.+.+.+.+.+.+.+.+.+.+.+.+.+.+.+.+.+.-.;.j k n 7 6 ; m ",
"7 7 7 - v b j %.&.R R R *.U U =.O.+.+.+.+.+.+.+.+.+.+.+.+.+.+.+.+.+.+.+.+.+.+.+.+.+.+.+.+.+.+.+.+.+.+.+.+.+.+.-.;.j k n 7 6 ; m ",
"7 7 7 - v b j %.&.R R R *.U U =.O.+.+.+.+.+.+.+.+.+.+.+.+.+.+.+.+.+.+.+.+.+.+.+.+.+.+.+.+.+.+.+.+.+.+.+.+.+.+.-.;.j k n 7 6 ; m ",
"7 7 7 - v b j %.&.R R R *.U U =.O.+.+.+.+.+.+.+.+.+.+.+.+.+.+.+.+.+.+.+.+.+.+.+.+.+.+.+.+.+.+.+.+.+.+.+.+.+.+.-.;.j k n 7 6 ; m ",
"7 7 7 - v b j %.&.R R R *.U U =.O.+.+.+.+.+.+.+.+.+.+.+.+.+.+.+.+.+.+.+.+.+.+.+.+.+.+.+.+.+.+.+.+.+.+.+.+.+.+.-.;.j k n 7 6 ; m ",
"7 7 7 - v b j %.&.R R R *.U U =.O.+.+.+.+.+.+.+.+.+.+.+.+.+.+.+.+.+.+.+.+.+.+.+.+.+.+.+.+.+.+.+.+.+.+.+.+.+.+.-.;.j k n 7 6 ; m ",
"7 7 7 - v b j %.&.R R R *.U U =.O.+.+.+.+.+.+.+.+.+.+.+.+.+.+.+.+.+.+.+.+.+.+.+.+.+.+.+.+.+.+.+.+.+.+.+.+.+.+.-.;.j k n 7 6 ; m ",
"7 7 7 - v b j %.&.R R R *.U U =.O.+.+.+.+.+.+.+.+.+.+.+.+.+.+.+.+.+.+.+.+.+.+.+.+.+.+.+.+.+.+.+.+.+.+.+.+.+.+.-.;.j k n 7 6 ; m ",
"7 7 7 - v b j %.&.R R R *.U U =.O.+.+.+.+.+.+.+.+.+.+.+.+.+.+.+.+.+.+.+.+.+.+.+.+.+.+.+.+.+.+.+.+.+.+.+.+.+.+.-.;.j k n 7 6 ; m ",
"7 7 7 - v b j %.&.R R R *.U U =.O.+.+.+.+.+.+.+.+.+.+.+.+.+.+.+.+.+.+.+.+.+.+.+.+.+.+.+.+.+.+.+.+.+.+.+.+.+.+.-.;.j k n 7 6 ; m ",
"7 7 7 - v b j %.&.R R R *.U U =.O.+.+.+.+.+.+.+.+.+.+.+.+.+.+.+.+.+.+.+.+.+.+.+.+.+.+.+.+.+.+.+.+.+.+.+.+.+.+.-.;.j k n 7 6 ; m ",
"7 7 7 - v b j %.&.R R R *.U U =.O.+.+.+.+.+.+.+.+.+.+.+.+.+.+.+.+.+.+.+.+.+.+.+.+.+.+.+.+.+.+.+.+.+.+.+.+.+.+.-.;.j k n 7 6 ; m ",
"7 7 7 - v b j %.&.R R R *.U U =.O.+.+.+.+.+.+.+.+.+.+.+.+.+.+.+.+.+.+.+.+.+.+.+.+.+.+.+.+.+.+.+.+.+.+.+.+.+.+.-.;.j k n 7 6 ; m ",
"7 7 7 - v b j %.&.R R R *.U U =.O.+.+.+.+.+.+.+.+.+.+.+.+.+.+.+.+.+.+.+.+.+.+.+.+.+.+.+.+.+.+.+.+.+.+.+.+.+.+.-.;.j k n 7 6 ; m ",
"7 7 7 - v b j %.&.R R R *.U U =.O.+.+.+.+.+.+.+.+.+.+.+.+.+.+.+.+.+.+.+.+.+.+.+.+.+.+.+.+.+.+.+.+.+.+.+.+.+.+.-.;.j k n 7 6 ; m ",
"7 7 7 - v b j %.&.R R R *.U U =.O.+.+.+.+.+.+.+.+.+.+.+.+.+.+.+.+.+.+.+.+.+.+.+.+.+.+.+.+.+.+.+.+.+.+.+.+.+.+.-.;.j k n 7 6 ; m ",
"7 7 7 - v b j %.&.R R R *.U U =.O.+.+.+.+.+.+.+.+.+.+.+.+.+.+.+.+.+.+.+.+.+.+.+.+.+.+.+.+.+.+.+.+.+.+.+.+.+.+.-.;.j k n 7 6 ; m ",
"7 7 7 - v b j %.&.R R R *.U U =.O.+.+.+.+.+.+.+.+.+.+.+.+.+.+.+.+.+.+.+.+.+.+.+.+.+.+.+.+.+.+.+.+.+.+.+.+.+.+.-.;.j k n 7 6 ; m ",
"7 7 7 - v b j %.&.R R R *.U U =.O.+.+.+.+.+.+.+.+.+.+.+.+.+.+.+.+.+.+.+.+.+.+.+.+.+.+.+.+.+.+.+.+.+.+.+.+.+.+.-.;.j k n 7 6 ; m ",
"7 7 7 - ..b j :.>.W W R o.U U a O.+.+.+.+.+.+.+.+.+.+.+.+.+.+.+.+.+.+.+.+.+.+.+.+.+.+.+.+.+.+.+.+.+.+.+.+.+.+.@.#.j $.n 7 6 ; m ",
"7 7 7 6 ,.<.<.1.2.] ] 3.4.5.5.5.6.+.+.+.+.+.+.+.+.+.+.+.+.+.+.+.+.+.+.+.+.+.+.+.+.+.+.+.+.+.+.+.+.+.+.+.+.+.+.7.8.<.<.9.7 6 ; m ",
"7 7 7 7 0.+.+.+.+.+.+.+.+.+.+.+.+.+.+.+.+.+.+.+.+.+.+.+.+.+.+.+.+.+.+.+.+.+.+.+.+.+.+.+.+.+.+.+.+.+.+.+.+.+.+.+.+.+.+.q.6 7 ; m ",
"7 7 7 7 0.+.+.+.+.+.+.+.+.+.+.+.+.+.+.+.+.+.+.+.+.+.+.+.+.+.+.+.+.+.+.+.+.+.+.+.+.+.+.+.+.+.+.+.+.+.+.+.+.+.+.+.+.+.+.q.6 7 ; m ",
"7 7 7 7 0.+.+.+.+.+.+.+.+.+.+.+.+.+.+.+.+.+.+.+.+.+.+.+.+.+.+.+.+.+.+.+.+.+.+.+.+.+.+.+.+.+.+.+.+.+.+.+.+.+.+.+.+.+.+.q.7 7 r m ",
"w.w.w.e.r.t.y.u.u.u.u.u.u.u.u.u.u.u.u.u.u.u.u.u.u.u.u.u.u.u.u.u.u.u.u.u.u.u.u.u.u.u.u.u.u.u.u.u.u.u.u.u.u.u.u.u.u.u.i.p.a.w.e.s.",
"+.+.+.+.d.f.g.g.g.g.g.g.g.g.g.g.g.g.g.g.g.g.g.g.g.g.g.g.g.g.g.g.g.g.g.g.g.g.g.g.g.g.g.g.g.g.g.g.g.g.g.g.g.g.g.g.g.g.h.j.k.+.+.d.",
"+.+.+.+.l.z.x.x.x.x.x.x.x.x.x.x.x.x.x.x.x.x.x.x.x.x.x.x.x.x.x.x.x.x.x.x.x.x.x.x.x.x.x.x.x.x.x.x.x.x.x.x.x.x.x.x.x.x.g.c.k.+.+.d.",
"+.+.+.+.l.z.x.x.x.x.x.x.x.x.x.x.x.x.x.x.x.x.x.x.x.x.x.x.x.x.x.x.x.x.x.x.x.x.x.x.x.x.x.x.x.x.x.x.x.x.x.x.x.x.x.x.x.x.g.c.k.+.+.d."
};
