<svg width="20" height="20" viewBox="0 0 20 20" fill="none" xmlns="http://www.w3.org/2000/svg">
<path d="M16.1 13.3C16 13.4 15.8 13.5 15.7 13.6L13.3 14L15 17.6C15.2 18 15 18.4 14.6 18.6L11.8 19.9C11.7 20 11.6 20 11.5 20C11.2 20 10.9 19.8 10.8 19.6L9.2 16L7.3 17.5C7.2 17.6 7 17.7 6.8 17.7C6.4 17.7 6 17.4 6 16.9V5.5C6 5 6.3 4.7 6.8 4.7C7 4.7 7.2 4.8 7.3 4.9L16 12.3C16.3 12.5 16.4 13 16.1 13.3ZM4 10H2V2H18V10H16.4L18.6 11.9C19.4 11.6 19.9 10.9 19.9 10V2C19.9 0.9 19 0 17.9 0H2C0.9 0 0 0.9 0 2V10C0 11.1 0.9 12 2 12H4V10Z" fill="black"/>
</svg>
