<svg width="100" height="100" viewBox="0 0 100 100" fill="none" xmlns="http://www.w3.org/2000/svg">
<path d="M86.1111 60C93.8889 60 100 65.5 100 72.5C100 79.5 93.8889 85 86.1111 85C78.3333 85 72.2222 79.5 72.2222 72.5C72.2222 65.5 78.3333 60 86.1111 60ZM22.2222 65C22.2222 65 27.7778 70 27.7778 75V92.5C27.7778 96.5 31.6667 100 36.1111 100C40.5556 100 44.4444 96.5 44.4444 92.5V75C44.4444 70 50 65 50 65H22.2222ZM27.7778 60H44.4444C44.4444 60 72.2222 60 72.2222 35C72.2222 10 50 0 36.1111 0C22.2222 0 0 10 0 35C0 60 27.7778 60 27.7778 60Z" fill="black"/>
</svg>
